<?xml version="1.0" encoding="UTF-8"?>
<svg xmlns="http://www.w3.org/2000/svg" version="1.1" xmlns:xlink="http://www.w3.org/1999/xlink" viewBox="0 0 256 256">
  <defs>
    <style>
      .cls-1 {
        fill: url(#_未命名的渐变_63-73);
      }

      .cls-2 {
        fill: url(#_未命名的渐变_63-28);
      }

      .cls-3 {
        fill: url(#_未命名的渐变_63-100);
      }

      .cls-4 {
        fill: url(#_未命名的渐变_63-65);
      }

      .cls-5 {
        fill: url(#_未命名的渐变_63-37);
      }

      .cls-6 {
        fill: url(#_未命名的渐变_63-67);
      }

      .cls-7 {
        fill: url(#_未命名的渐变_63);
      }

      .cls-8 {
        fill: url(#_未命名的渐变_63-81);
      }

      .cls-9 {
        fill: url(#_未命名的渐变_63-83);
      }

      .cls-10 {
        fill: url(#_未命名的渐变_63-26);
      }

      .cls-11 {
        fill: url(#_未命名的渐变_63-12);
      }

      .cls-12 {
        fill: url(#_未命名的渐变_63-51);
      }

      .cls-13 {
        fill: url(#_未命名的渐变_63-112);
      }

      .cls-14 {
        fill: url(#_未命名的渐变_63-52);
      }

      .cls-15 {
        fill: url(#_未命名的渐变_63-92);
      }

      .cls-16 {
        fill: url(#_未命名的渐变_63-55);
      }

      .cls-17 {
        fill: url(#_未命名的渐变_63-94);
      }

      .cls-18 {
        fill: url(#_未命名的渐变_63-54);
      }

      .cls-19 {
        fill: url(#_未命名的渐变_63-93);
      }

      .cls-20 {
        fill: url(#_未命名的渐变_63-60);
      }

      .cls-21 {
        fill: url(#_未命名的渐变_63-78);
      }

      .cls-22 {
        fill: url(#_未命名的渐变_63-80);
      }

      .cls-23 {
        fill: url(#_未命名的渐变_63-105);
      }

      .cls-24 {
        fill: url(#_未命名的渐变_63-20);
      }

      .cls-25 {
        fill: url(#_未命名的渐变_63-77);
      }

      .cls-26 {
        fill: url(#_未命名的渐变_63-117);
      }

      .cls-27 {
        fill: url(#_未命名的渐变_63-97);
      }

      .cls-28 {
        fill: url(#_未命名的渐变_63-74);
      }

      .cls-29 {
        fill: url(#_未命名的渐变_63-57);
      }

      .cls-30 {
        fill: url(#_未命名的渐变_63-11);
      }

      .cls-31 {
        fill: url(#_未命名的渐变_63-18);
      }

      .cls-32 {
        fill: url(#_未命名的渐变_63-89);
      }

      .cls-33 {
        fill: url(#_未命名的渐变_63-42);
      }

      .cls-34 {
        fill: url(#_未命名的渐变_63-50);
      }

      .cls-35 {
        fill: url(#_未命名的渐变_63-114);
      }

      .cls-36 {
        fill: url(#_未命名的渐变_63-31);
      }

      .cls-37 {
        fill: url(#_未命名的渐变_63-59);
      }

      .cls-38 {
        fill: url(#_未命名的渐变_63-88);
      }

      .cls-39 {
        fill: url(#_未命名的渐变_63-91);
      }

      .cls-40 {
        fill: url(#_未命名的渐变_63-29);
      }

      .cls-41 {
        fill: url(#_未命名的渐变_63-66);
      }

      .cls-42 {
        fill: url(#_未命名的渐变_63-23);
      }

      .cls-43 {
        fill: url(#_未命名的渐变_63-110);
      }

      .cls-44 {
        fill: url(#_未命名的渐变_63-116);
      }

      .cls-45 {
        fill: url(#_未命名的渐变_63-15);
      }

      .cls-46 {
        fill: url(#_未命名的渐变_63-113);
      }

      .cls-47 {
        fill: url(#_未命名的渐变_63-98);
      }

      .cls-48 {
        fill: url(#_未命名的渐变_63-40);
      }

      .cls-49 {
        fill: url(#_未命名的渐变_63-38);
      }

      .cls-50 {
        fill: url(#_未命名的渐变_63-53);
      }

      .cls-51 {
        fill: url(#_未命名的渐变_63-4);
      }

      .cls-52 {
        fill: url(#_未命名的渐变_63-44);
      }

      .cls-53 {
        fill: url(#_未命名的渐变_63-62);
      }

      .cls-54 {
        fill: url(#_未命名的渐变_63-68);
      }

      .cls-55 {
        fill: url(#_未命名的渐变_63-35);
      }

      .cls-56 {
        fill: url(#_未命名的渐变_63-64);
      }

      .cls-57 {
        fill: url(#_未命名的渐变_63-71);
      }

      .cls-58 {
        fill: url(#_未命名的渐变_63-108);
      }

      .cls-59 {
        fill: url(#_未命名的渐变_63-32);
      }

      .cls-60 {
        fill: url(#_未命名的渐变_63-115);
      }

      .cls-61 {
        fill: url(#_未命名的渐变_63-16);
      }

      .cls-62 {
        fill: url(#_未命名的渐变_63-111);
      }

      .cls-63 {
        fill: url(#_未命名的渐变_63-45);
      }

      .cls-64 {
        fill: url(#_未命名的渐变_63-22);
      }

      .cls-65 {
        fill: url(#_未命名的渐变_63-14);
      }

      .cls-66 {
        fill: url(#_未命名的渐变_63-47);
      }

      .cls-67 {
        fill: url(#_未命名的渐变_63-27);
      }

      .cls-68 {
        fill: url(#_未命名的渐变_63-104);
      }

      .cls-69 {
        fill: url(#_未命名的渐变_63-5);
      }

      .cls-70 {
        fill: url(#_未命名的渐变_63-82);
      }

      .cls-71 {
        fill: url(#_未命名的渐变_63-96);
      }

      .cls-72 {
        fill: url(#_未命名的渐变_63-19);
      }

      .cls-73 {
        fill: url(#_未命名的渐变_63-86);
      }

      .cls-74 {
        fill: url(#_未命名的渐变_63-49);
      }

      .cls-75 {
        fill: url(#_未命名的渐变_63-9);
      }

      .cls-76 {
        fill: url(#_未命名的渐变_63-41);
      }

      .cls-77 {
        fill: url(#_未命名的渐变_63-56);
      }

      .cls-78 {
        fill: url(#_未命名的渐变_63-76);
      }

      .cls-79 {
        fill: url(#_未命名的渐变_63-70);
      }

      .cls-80 {
        fill: url(#_未命名的渐变_63-118);
      }

      .cls-81 {
        fill: url(#_未命名的渐变_63-75);
      }

      .cls-82 {
        fill: url(#_未命名的渐变_63-2);
      }

      .cls-83 {
        fill: url(#_未命名的渐变_63-61);
      }

      .cls-84 {
        fill: url(#_未命名的渐变_63-21);
      }

      .cls-85 {
        fill: url(#_未命名的渐变_63-36);
      }

      .cls-86 {
        fill: url(#_未命名的渐变_63-90);
      }

      .cls-87 {
        fill: url(#_未命名的渐变_63-13);
      }

      .cls-88 {
        fill: url(#_未命名的渐变_63-101);
      }

      .cls-89 {
        fill: url(#_未命名的渐变_63-25);
      }

      .cls-90 {
        fill: url(#_未命名的渐变_63-30);
      }

      .cls-91 {
        fill: url(#_未命名的渐变_63-39);
      }

      .cls-92 {
        fill: url(#_未命名的渐变_63-85);
      }

      .cls-93 {
        fill: url(#_未命名的渐变_63-109);
      }

      .cls-94 {
        fill: url(#_未命名的渐变_63-103);
      }

      .cls-95 {
        fill: url(#_未命名的渐变_63-33);
      }

      .cls-96 {
        fill: url(#_未命名的渐变_63-10);
      }

      .cls-97 {
        fill: url(#_未命名的渐变_63-69);
      }

      .cls-98 {
        fill: url(#_未命名的渐变_63-84);
      }

      .cls-99 {
        fill: url(#_未命名的渐变_63-17);
      }

      .cls-100 {
        fill: url(#_未命名的渐变_63-48);
      }

      .cls-101 {
        fill: url(#_未命名的渐变_63-99);
      }

      .cls-102 {
        fill: url(#_未命名的渐变_63-107);
      }

      .cls-103 {
        fill: url(#_未命名的渐变_63-63);
      }

      .cls-104 {
        fill: url(#_未命名的渐变_63-79);
      }

      .cls-105 {
        fill: url(#_未命名的渐变_63-102);
      }

      .cls-106 {
        fill: url(#_未命名的渐变_63-106);
      }

      .cls-107 {
        fill: url(#_未命名的渐变_63-87);
      }

      .cls-108 {
        fill: url(#_未命名的渐变_63-24);
      }

      .cls-109 {
        fill: url(#_未命名的渐变_63-6);
      }

      .cls-110 {
        fill: url(#_未命名的渐变_63-95);
      }

      .cls-111 {
        fill: url(#_未命名的渐变_63-72);
      }

      .cls-112 {
        fill: url(#_未命名的渐变_63-43);
      }

      .cls-113 {
        fill: url(#_未命名的渐变_63-3);
      }

      .cls-114 {
        fill: url(#_未命名的渐变_63-46);
      }

      .cls-115 {
        fill: url(#_未命名的渐变_63-7);
      }

      .cls-116 {
        fill: url(#_未命名的渐变_63-58);
      }

      .cls-117 {
        fill: url(#_未命名的渐变_63-34);
      }

      .cls-118 {
        fill: url(#_未命名的渐变_63-8);
      }
    </style>
    <linearGradient id="_未命名的渐变_63" data-name="未命名的渐变 63" x1="115.3" y1="-6.2" x2="115.3" y2="242.5" gradientUnits="userSpaceOnUse">
      <stop offset=".8" stop-color="#fff"/>
      <stop offset="1" stop-color="#fff" stop-opacity="0"/>
    </linearGradient>
    <linearGradient id="_未命名的渐变_63-2" data-name="未命名的渐变 63" x1="133" x2="133" y2="242.5" xlink:href="#_未命名的渐变_63"/>
    <linearGradient id="_未命名的渐变_63-3" data-name="未命名的渐变 63" x1="159.2" y1="-6.2" x2="159.2" y2="242.5" xlink:href="#_未命名的渐变_63"/>
    <linearGradient id="_未命名的渐变_63-4" data-name="未命名的渐变 63" x1="158.8" y1="-6.2" x2="158.8" y2="242.5" xlink:href="#_未命名的渐变_63"/>
    <linearGradient id="_未命名的渐变_63-5" data-name="未命名的渐变 63" x1="176.9" y1="-6.2" x2="176.9" y2="242.5" xlink:href="#_未命名的渐变_63"/>
    <linearGradient id="_未命名的渐变_63-6" data-name="未命名的渐变 63" x1="194.4" y1="-6.2" x2="194.4" y2="242.5" xlink:href="#_未命名的渐变_63"/>
    <linearGradient id="_未命名的渐变_63-7" data-name="未命名的渐变 63" x1="190.6" y1="-6.2" x2="190.6" y2="242.5" xlink:href="#_未命名的渐变_63"/>
    <linearGradient id="_未命名的渐变_63-8" data-name="未命名的渐变 63" x1="63.9" y1="-6.2" x2="63.9" y2="242.5" xlink:href="#_未命名的渐变_63"/>
    <linearGradient id="_未命名的渐变_63-9" data-name="未命名的渐变 63" x1="196.6" y1="-6.2" x2="196.6" y2="242.5" xlink:href="#_未命名的渐变_63"/>
    <linearGradient id="_未命名的渐变_63-10" data-name="未命名的渐变 63" x1="139.5" y1="-6.2" x2="139.5" y2="242.5" xlink:href="#_未命名的渐变_63"/>
    <linearGradient id="_未命名的渐变_63-11" data-name="未命名的渐变 63" x1="116.9" y1="-6.2" x2="116.9" y2="242.5" xlink:href="#_未命名的渐变_63"/>
    <linearGradient id="_未命名的渐变_63-12" data-name="未命名的渐变 63" x1="127.9" y1="-6.2" x2="127.9" y2="242.5" xlink:href="#_未命名的渐变_63"/>
    <linearGradient id="_未命名的渐变_63-13" data-name="未命名的渐变 63" x1="196.9" y1="-6.2" x2="196.9" y2="242.5" xlink:href="#_未命名的渐变_63"/>
    <linearGradient id="_未命名的渐变_63-14" data-name="未命名的渐变 63" x1="200.7" y1="-6.2" x2="200.7" y2="242.5" xlink:href="#_未命名的渐变_63"/>
    <linearGradient id="_未命名的渐变_63-15" data-name="未命名的渐变 63" x1="89.5" y1="-6.2" x2="89.5" y2="242.5" xlink:href="#_未命名的渐变_63"/>
    <linearGradient id="_未命名的渐变_63-16" data-name="未命名的渐变 63" x1="192.2" y1="-6.2" x2="192.2" y2="242.5" xlink:href="#_未命名的渐变_63"/>
    <linearGradient id="_未命名的渐变_63-17" data-name="未命名的渐变 63" x1="131.7" y1="-6.2" x2="131.7" y2="242.5" xlink:href="#_未命名的渐变_63"/>
    <linearGradient id="_未命名的渐变_63-18" data-name="未命名的渐变 63" x1="130.2" y1="-6.2" x2="130.2" y2="242.5" xlink:href="#_未命名的渐变_63"/>
    <linearGradient id="_未命名的渐变_63-19" data-name="未命名的渐变 63" x1="102" y1="-6.2" x2="102" y2="242.5" xlink:href="#_未命名的渐变_63"/>
    <linearGradient id="_未命名的渐变_63-20" data-name="未命名的渐变 63" x1="144.3" y1="-6.2" x2="144.3" y2="242.5" xlink:href="#_未命名的渐变_63"/>
    <linearGradient id="_未命名的渐变_63-21" data-name="未命名的渐变 63" x1="132.4" y1="-6.2" x2="132.4" y2="242.5" xlink:href="#_未命名的渐变_63"/>
    <linearGradient id="_未命名的渐变_63-22" data-name="未命名的渐变 63" x1="139.6" y1="-6.2" x2="139.6" y2="242.5" xlink:href="#_未命名的渐变_63"/>
    <linearGradient id="_未命名的渐变_63-23" data-name="未命名的渐变 63" x1="112.3" y1="-6.2" x2="112.3" y2="242.5" xlink:href="#_未命名的渐变_63"/>
    <linearGradient id="_未命名的渐变_63-24" data-name="未命名的渐变 63" x1="188.4" y1="-6.2" x2="188.4" y2="242.5" xlink:href="#_未命名的渐变_63"/>
    <linearGradient id="_未命名的渐变_63-25" data-name="未命名的渐变 63" x1="146.5" y1="-6.2" x2="146.5" y2="242.5" xlink:href="#_未命名的渐变_63"/>
    <linearGradient id="_未命名的渐变_63-26" data-name="未命名的渐变 63" x1="123" y1="-6.2" x2="123" y2="242.5" xlink:href="#_未命名的渐变_63"/>
    <linearGradient id="_未命名的渐变_63-27" data-name="未命名的渐变 63" x1="189.4" y1="-6.2" x2="189.4" y2="242.5" xlink:href="#_未命名的渐变_63"/>
    <linearGradient id="_未命名的渐变_63-28" data-name="未命名的渐变 63" x1="134.8" y1="-6.2" x2="134.8" y2="242.5" xlink:href="#_未命名的渐变_63"/>
    <linearGradient id="_未命名的渐变_63-29" data-name="未命名的渐变 63" x1="53.7" y1="-365.2" x2="53.7" y2="505.6" xlink:href="#_未命名的渐变_63"/>
    <linearGradient id="_未命名的渐变_63-30" data-name="未命名的渐变 63" x1="149.2" y1="-6.2" x2="149.2" y2="242.5" xlink:href="#_未命名的渐变_63"/>
    <linearGradient id="_未命名的渐变_63-31" data-name="未命名的渐变 63" x1="207.5" y1="-6.2" x2="207.5" y2="242.5" xlink:href="#_未命名的渐变_63"/>
    <linearGradient id="_未命名的渐变_63-32" data-name="未命名的渐变 63" x1="125.5" x2="125.5" xlink:href="#_未命名的渐变_63"/>
    <linearGradient id="_未命名的渐变_63-33" data-name="未命名的渐变 63" x1="194.6" y1="-6.2" x2="194.6" y2="242.5" xlink:href="#_未命名的渐变_63"/>
    <linearGradient id="_未命名的渐变_63-34" data-name="未命名的渐变 63" x1="201.1" y1="-6.2" x2="201.1" y2="242.5" xlink:href="#_未命名的渐变_63"/>
    <linearGradient id="_未命名的渐变_63-35" data-name="未命名的渐变 63" x1="123.1" y1="-6.2" x2="123.1" y2="242.5" xlink:href="#_未命名的渐变_63"/>
    <linearGradient id="_未命名的渐变_63-36" data-name="未命名的渐变 63" x1="207.9" y1="-6.2" x2="207.9" y2="242.5" xlink:href="#_未命名的渐变_63"/>
    <linearGradient id="_未命名的渐变_63-37" data-name="未命名的渐变 63" x1="123.7" y1="-6.2" x2="123.7" y2="242.5" xlink:href="#_未命名的渐变_63"/>
    <linearGradient id="_未命名的渐变_63-38" data-name="未命名的渐变 63" x1="91.7" y1="-6.2" x2="91.7" y2="242.5" xlink:href="#_未命名的渐变_63"/>
    <linearGradient id="_未命名的渐变_63-39" data-name="未命名的渐变 63" x1="203.7" y1="-6.2" x2="203.7" y2="242.5" xlink:href="#_未命名的渐变_63"/>
    <linearGradient id="_未命名的渐变_63-40" data-name="未命名的渐变 63" x1="122.9" y1="-6.2" x2="122.9" y2="242.5" xlink:href="#_未命名的渐变_63"/>
    <linearGradient id="_未命名的渐变_63-41" data-name="未命名的渐变 63" x1="203" y1="-6.2" x2="203" y2="242.5" xlink:href="#_未命名的渐变_63"/>
    <linearGradient id="_未命名的渐变_63-42" data-name="未命名的渐变 63" x1="131.9" y1="-6.2" x2="131.9" y2="242.5" xlink:href="#_未命名的渐变_63"/>
    <linearGradient id="_未命名的渐变_63-43" data-name="未命名的渐变 63" x1="191.2" y1="-6.2" x2="191.2" y2="242.5" xlink:href="#_未命名的渐变_63"/>
    <linearGradient id="_未命名的渐变_63-44" data-name="未命名的渐变 63" x1="126.4" y1="-6.2" x2="126.4" y2="242.5" xlink:href="#_未命名的渐变_63"/>
    <linearGradient id="_未命名的渐变_63-45" data-name="未命名的渐变 63" x1="144.2" y1="-6.2" x2="144.2" y2="242.5" xlink:href="#_未命名的渐变_63"/>
    <linearGradient id="_未命名的渐变_63-46" data-name="未命名的渐变 63" x1="208.6" y1="-6.2" x2="208.6" y2="242.5" xlink:href="#_未命名的渐变_63"/>
    <linearGradient id="_未命名的渐变_63-47" data-name="未命名的渐变 63" x1="94.1" x2="94.1" y2="242.5" xlink:href="#_未命名的渐变_63"/>
    <linearGradient id="_未命名的渐变_63-48" data-name="未命名的渐变 63" x1="185.4" y1="-6.2" x2="185.4" y2="242.5" xlink:href="#_未命名的渐变_63"/>
    <linearGradient id="_未命名的渐变_63-49" data-name="未命名的渐变 63" x1="194.2" y1="-6.2" x2="194.2" y2="242.5" xlink:href="#_未命名的渐变_63"/>
    <linearGradient id="_未命名的渐变_63-50" data-name="未命名的渐变 63" x1="47.3" y1="-6.2" x2="47.3" y2="242.5" xlink:href="#_未命名的渐变_63"/>
    <linearGradient id="_未命名的渐变_63-51" data-name="未命名的渐变 63" x1="107.9" y1="-6.2" x2="107.9" y2="242.5" xlink:href="#_未命名的渐变_63"/>
    <linearGradient id="_未命名的渐变_63-52" data-name="未命名的渐变 63" x1="188.5" y1="-6.2" x2="188.5" y2="242.5" xlink:href="#_未命名的渐变_63"/>
    <linearGradient id="_未命名的渐变_63-53" data-name="未命名的渐变 63" x1="47.7" y1="-385.5" x2="47.7" y2="470.2" xlink:href="#_未命名的渐变_63"/>
    <linearGradient id="_未命名的渐变_63-54" data-name="未命名的渐变 63" x1="125.1" y1="-6.2" x2="125.1" y2="242.5" xlink:href="#_未命名的渐变_63"/>
    <linearGradient id="_未命名的渐变_63-55" data-name="未命名的渐变 63" x1="110.9" y1="-6.2" x2="110.9" y2="242.5" xlink:href="#_未命名的渐变_63"/>
    <linearGradient id="_未命名的渐变_63-56" data-name="未命名的渐变 63" x1="124.3" y1="-6.2" x2="124.3" y2="242.5" xlink:href="#_未命名的渐变_63"/>
    <linearGradient id="_未命名的渐变_63-57" data-name="未命名的渐变 63" x1="59" y1="-6.2" x2="59" y2="242.5" xlink:href="#_未命名的渐变_63"/>
    <linearGradient id="_未命名的渐变_63-58" data-name="未命名的渐变 63" x1="184" y1="-6.2" x2="184" y2="242.5" xlink:href="#_未命名的渐变_63"/>
    <linearGradient id="_未命名的渐变_63-59" data-name="未命名的渐变 63" x1="152.6" y1="-6.2" x2="152.6" y2="242.5" xlink:href="#_未命名的渐变_63"/>
    <linearGradient id="_未命名的渐变_63-60" data-name="未命名的渐变 63" x1="193" y1="86.1" x2="193" y2="86.1" xlink:href="#_未命名的渐变_63"/>
    <linearGradient id="_未命名的渐变_63-61" data-name="未命名的渐变 63" x1="191.8" y1="82.6" x2="191.8" y2="82.6" xlink:href="#_未命名的渐变_63"/>
    <linearGradient id="_未命名的渐变_63-62" data-name="未命名的渐变 63" x1="191.7" y1="-6.2" x2="191.7" y2="242.5" xlink:href="#_未命名的渐变_63"/>
    <linearGradient id="_未命名的渐变_63-63" data-name="未命名的渐变 63" x1="191.4" y1="-6.2" x2="191.4" y2="242.5" xlink:href="#_未命名的渐变_63"/>
    <linearGradient id="_未命名的渐变_63-64" data-name="未命名的渐变 63" x1="191.1" y1="-6.2" x2="191.1" y2="242.5" xlink:href="#_未命名的渐变_63"/>
    <linearGradient id="_未命名的渐变_63-65" data-name="未命名的渐变 63" x1="152.9" y1="-6.2" x2="152.9" y2="242.5" xlink:href="#_未命名的渐变_63"/>
    <linearGradient id="_未命名的渐变_63-66" data-name="未命名的渐变 63" x1="170.1" y1="-6.2" x2="170.1" y2="242.5" xlink:href="#_未命名的渐变_63"/>
    <linearGradient id="_未命名的渐变_63-67" data-name="未命名的渐变 63" x1="145.9" y1="-6.2" x2="145.9" y2="242.5" xlink:href="#_未命名的渐变_63"/>
    <linearGradient id="_未命名的渐变_63-68" data-name="未命名的渐变 63" x1="156.6" y1="-6.2" x2="156.6" y2="242.5" xlink:href="#_未命名的渐变_63"/>
    <linearGradient id="_未命名的渐变_63-69" data-name="未命名的渐变 63" x1="160.1" y1="-6.2" x2="160.1" y2="242.5" xlink:href="#_未命名的渐变_63"/>
    <linearGradient id="_未命名的渐变_63-70" data-name="未命名的渐变 63" x1="138.8" y1="-6.2" x2="138.8" y2="242.5" xlink:href="#_未命名的渐变_63"/>
    <linearGradient id="_未命名的渐变_63-71" data-name="未命名的渐变 63" x1="144.1" y1="-6.2" x2="144.1" y2="242.5" xlink:href="#_未命名的渐变_63"/>
    <linearGradient id="_未命名的渐变_63-72" data-name="未命名的渐变 63" x1="181" y1="-6.2" x2="181" y2="242.5" xlink:href="#_未命名的渐变_63"/>
    <linearGradient id="_未命名的渐变_63-73" data-name="未命名的渐变 63" x1="150.4" y1="-6.2" x2="150.4" y2="242.5" xlink:href="#_未命名的渐变_63"/>
    <linearGradient id="_未命名的渐变_63-74" data-name="未命名的渐变 63" x1="151.1" y1="-6.2" x2="151.1" y2="242.5" xlink:href="#_未命名的渐变_63"/>
    <linearGradient id="_未命名的渐变_63-75" data-name="未命名的渐变 63" x1="182.3" y1="-6.2" x2="182.3" y2="242.5" xlink:href="#_未命名的渐变_63"/>
    <linearGradient id="_未命名的渐变_63-76" data-name="未命名的渐变 63" x1="181.9" y1="-6.2" x2="181.9" y2="242.5" xlink:href="#_未命名的渐变_63"/>
    <linearGradient id="_未命名的渐变_63-77" data-name="未命名的渐变 63" x1="154.4" y1="-6.2" x2="154.4" y2="242.5" xlink:href="#_未命名的渐变_63"/>
    <linearGradient id="_未命名的渐变_63-78" data-name="未命名的渐变 63" x1="185.6" y1="-6.2" x2="185.6" y2="242.5" xlink:href="#_未命名的渐变_63"/>
    <linearGradient id="_未命名的渐变_63-79" data-name="未命名的渐变 63" x1="153.6" y1="-6.2" x2="153.6" y2="242.5" xlink:href="#_未命名的渐变_63"/>
    <linearGradient id="_未命名的渐变_63-80" data-name="未命名的渐变 63" x1="186.5" y1="-6.2" x2="186.5" y2="242.5" xlink:href="#_未命名的渐变_63"/>
    <linearGradient id="_未命名的渐变_63-81" data-name="未命名的渐变 63" x1="139.1" y1="-6.2" x2="139.1" y2="242.5" xlink:href="#_未命名的渐变_63"/>
    <linearGradient id="_未命名的渐变_63-82" data-name="未命名的渐变 63" x1="159" y1="-6.2" x2="159" y2="242.5" xlink:href="#_未命名的渐变_63"/>
    <linearGradient id="_未命名的渐变_63-83" data-name="未命名的渐变 63" x1="172.8" y1="-6.2" x2="172.8" y2="242.5" xlink:href="#_未命名的渐变_63"/>
    <linearGradient id="_未命名的渐变_63-84" data-name="未命名的渐变 63" x1="181.2" y1="-6.2" x2="181.2" y2="242.5" xlink:href="#_未命名的渐变_63"/>
    <linearGradient id="_未命名的渐变_63-85" data-name="未命名的渐变 63" x1="146.9" y1="-6.2" x2="146.9" y2="242.5" xlink:href="#_未命名的渐变_63"/>
    <linearGradient id="_未命名的渐变_63-86" data-name="未命名的渐变 63" x1="152.2" y1="-6.2" x2="152.2" y2="242.5" xlink:href="#_未命名的渐变_63"/>
    <linearGradient id="_未命名的渐变_63-87" data-name="未命名的渐变 63" x1="178" y1="-6.2" x2="178" y2="242.5" xlink:href="#_未命名的渐变_63"/>
    <linearGradient id="_未命名的渐变_63-88" data-name="未命名的渐变 63" x1="149.9" y1="-6.2" x2="149.9" y2="242.5" xlink:href="#_未命名的渐变_63"/>
    <linearGradient id="_未命名的渐变_63-89" data-name="未命名的渐变 63" x1="144" y1="-6.2" x2="144" y2="242.5" xlink:href="#_未命名的渐变_63"/>
    <linearGradient id="_未命名的渐变_63-90" data-name="未命名的渐变 63" x1="159.1" y1="-6.2" x2="159.1" y2="242.5" xlink:href="#_未命名的渐变_63"/>
    <linearGradient id="_未命名的渐变_63-91" data-name="未命名的渐变 63" x1="139.8" y1="-6.2" x2="139.8" y2="242.5" xlink:href="#_未命名的渐变_63"/>
    <linearGradient id="_未命名的渐变_63-92" data-name="未命名的渐变 63" x1="166.3" y1="-6.2" x2="166.3" y2="242.5" xlink:href="#_未命名的渐变_63"/>
    <linearGradient id="_未命名的渐变_63-93" data-name="未命名的渐变 63" x1="183.6" y1="-6.2" x2="183.6" y2="242.5" xlink:href="#_未命名的渐变_63"/>
    <linearGradient id="_未命名的渐变_63-94" data-name="未命名的渐变 63" x1="184.5" y1="54.5" x2="184.5" y2="54.5" xlink:href="#_未命名的渐变_63"/>
    <linearGradient id="_未命名的渐变_63-95" data-name="未命名的渐变 63" x1="184.8" y1="51.9" x2="184.8" y2="51.9" xlink:href="#_未命名的渐变_63"/>
    <linearGradient id="_未命名的渐变_63-96" data-name="未命名的渐变 63" x1="192" y1="-6.2" x2="192" y2="242.5" xlink:href="#_未命名的渐变_63"/>
    <linearGradient id="_未命名的渐变_63-97" data-name="未命名的渐变 63" x1="189.4" y1="-6.2" x2="189.4" y2="242.5" xlink:href="#_未命名的渐变_63"/>
    <linearGradient id="_未命名的渐变_63-98" data-name="未命名的渐变 63" x1="189.2" y1="-6.2" x2="189.2" y2="242.5" xlink:href="#_未命名的渐变_63"/>
    <linearGradient id="_未命名的渐变_63-99" data-name="未命名的渐变 63" x1="172" y1="-6.2" x2="172" y2="242.5" xlink:href="#_未命名的渐变_63"/>
    <linearGradient id="_未命名的渐变_63-100" data-name="未命名的渐变 63" x1="122.6" y1="-6.2" x2="122.6" y2="242.5" xlink:href="#_未命名的渐变_63"/>
    <linearGradient id="_未命名的渐变_63-101" data-name="未命名的渐变 63" x1="127.1" y1="-6.2" x2="127.1" y2="242.5" xlink:href="#_未命名的渐变_63"/>
    <linearGradient id="_未命名的渐变_63-102" data-name="未命名的渐变 63" x1="177.7" y1="-6.2" x2="177.7" y2="242.5" xlink:href="#_未命名的渐变_63"/>
    <linearGradient id="_未命名的渐变_63-103" data-name="未命名的渐变 63" x1="181.8" y1="-6.2" x2="181.8" y2="242.5" xlink:href="#_未命名的渐变_63"/>
    <linearGradient id="_未命名的渐变_63-104" data-name="未命名的渐变 63" x1="130.8" y1="-6.2" x2="130.8" y2="242.5" xlink:href="#_未命名的渐变_63"/>
    <linearGradient id="_未命名的渐变_63-105" data-name="未命名的渐变 63" x1="191.6" y1="-6.2" x2="191.6" y2="242.5" xlink:href="#_未命名的渐变_63"/>
    <linearGradient id="_未命名的渐变_63-106" data-name="未命名的渐变 63" x1="197" y1="-6.2" x2="197" y2="242.5" xlink:href="#_未命名的渐变_63"/>
    <linearGradient id="_未命名的渐变_63-107" data-name="未命名的渐变 63" x1="125.6" y1="-6.2" x2="125.6" y2="242.5" xlink:href="#_未命名的渐变_63"/>
    <linearGradient id="_未命名的渐变_63-108" data-name="未命名的渐变 63" x1="141.2" y1="-6.2" x2="141.2" y2="242.5" xlink:href="#_未命名的渐变_63"/>
    <linearGradient id="_未命名的渐变_63-109" data-name="未命名的渐变 63" x1="126.3" y1="-6.2" x2="126.3" y2="242.5" xlink:href="#_未命名的渐变_63"/>
    <linearGradient id="_未命名的渐变_63-110" data-name="未命名的渐变 63" x1="169.4" y1="-6.2" x2="169.4" y2="242.5" xlink:href="#_未命名的渐变_63"/>
    <linearGradient id="_未命名的渐变_63-111" data-name="未命名的渐变 63" x1="133" y1="-6.2" x2="133" y2="242.5" xlink:href="#_未命名的渐变_63"/>
    <linearGradient id="_未命名的渐变_63-112" data-name="未命名的渐变 63" x1="136" y1="-6.2" x2="136" y2="242.5" xlink:href="#_未命名的渐变_63"/>
    <linearGradient id="_未命名的渐变_63-113" data-name="未命名的渐变 63" x1="135.7" y1="-6.2" x2="135.7" y2="242.5" xlink:href="#_未命名的渐变_63"/>
    <linearGradient id="_未命名的渐变_63-114" data-name="未命名的渐变 63" x1="139.1" y1="-6.2" x2="139.1" y2="242.5" xlink:href="#_未命名的渐变_63"/>
    <linearGradient id="_未命名的渐变_63-115" data-name="未命名的渐变 63" x1="132.3" y1="81.8" x2="132.3" y2="81.8" xlink:href="#_未命名的渐变_63"/>
    <linearGradient id="_未命名的渐变_63-116" data-name="未命名的渐变 63" x1="114.3" y1="-6.2" x2="114.3" y2="242.5" xlink:href="#_未命名的渐变_63"/>
    <linearGradient id="_未命名的渐变_63-117" data-name="未命名的渐变 63" x1="113.5" y1="-6.2" x2="113.5" y2="242.5" xlink:href="#_未命名的渐变_63"/>
    <linearGradient id="_未命名的渐变_63-118" data-name="未命名的渐变 63" x1="154.3" y1="-6.2" x2="154.3" y2="242.5" xlink:href="#_未命名的渐变_63"/>
  </defs>
  <!-- Generator: Adobe Illustrator 28.7.5, SVG Export Plug-In . SVG Version: 1.2.0 Build 176)  -->
  <g>
    <g id="_图层_1" data-name="图层_1">
      <g id="_图层_1-2" data-name="_图层_1">
        <g>
          <path class="cls-7" d="M122,253.6c-.2-.9-.9-1.6-1.1-2.4-.4-1.7-1.6-3-1.9-4.7,0-.2,0-.3-.2-.4-.6-1.1-10.4-30.5-10.9-31.7h.3c.2,1.3,10.5,30.4,11,31.5.7,1.5,1.3,3.1,2,4.6.5.9.9,1.9,1.5,2.8h0v.2h-.8,0Z"/>
          <path class="cls-82" d="M162,248.1c-1.1-6.2-2.3-12.4-3.5-18.6-.6-3-1.5-6-2.1-9-.5-2.1-1.2-4.1-1.9-6.1-.1-.4-.3-.7-.3-1.1,1.2,1.4,1.6,3.1,2.3,4.7.9-.5,1.5-1.2,2.1-1.9,1.4-1.5,2.9-2.9,4.4-4.3,4.1-3.7,7.9-7.7,11.3-12.1,3.5-4.6,6.8-9.3,9.8-14.3,1.1-1.9,2.2-3.8,3-5.8.3-.7.3-1.2,0-1.9-.8-1.6-1-3.4-1.3-5.2-.1-.6,0-1.3-.5-2.2-.5,1.2-.9,2.3-1.3,3.3-1.7,4.2-4,7.9-6.4,11.7-1.3,2-2.5,4.1-4.2,5.8-4.2,4.4-9.2,7.1-15.1,8.5-.7.2-1.5.4-2.3.3-.3,0-.5.1-.5.4,0,2.2-.4,2.6-2.5,2.8h-2.6c-1.3-.2-2.5-.1-3.8,0-.2-.2-.4-.1-.7-.1h-.5c-.3-.1-.7-.1-1,0-.5,0-.9,0-1.4.1-1.2.3-2.3.5-3.5.4-.2,0-.3,0-.5.2.1.4.6.4.9.5,1.4.3,2.8.9,4,1.7,2.4,1.5,5.1,2.4,7.3,4.2.7.5,1.5,1.1,2,1.8-1.1.7-2.2,1.5-3.4,2h-1c-5.4-1-10.7-2.2-15.6-5.1.5-.5,1-.1,1.3,0,1,.4,2,.9,3,1.3,3.5,1.4,7.1,2.1,10.8,2.8,1.5.3,2.7-.4,4.1-1.1-1.4-1.2-2.7-2.2-4.3-2.9-1.1-.6-2.2-1.1-3.3-1.7-2.4-1.5-5.1-2.2-7.6-3.2-1-.4-2.1-.7-2.9-1.6.4-.3.6-.1.9,0,1.7.6,3.4.5,5.1.3,1.1-.1,2.2-.3,3.3-.4h1.9c1.4.2,2.7.3,4.1.1h4.1c.3,0,.7,0,1-.3s.7-.9.6-1.5c0-.5-.7-.7-1.1-.8-2.2-.5-4.3-1-6.5-1.4-2.6-.4-5.2-.7-7.7-1-3.5-.4-6.6-1.7-9.7-3.1-3.3-1.4-6.5-3.3-9.9-4.5-.4-.1-.8-.3-1.3-.3-.5,1.8-.9,3.6-1.8,5.3-1.9,3.6-4.6,6.3-8.6,7.3-.4.1-.9.2-1.5.3.5.7.9,1.3,1.4,1.8,2.9,3.7,6,7.1,9.7,10,1.2,1,2.5,1.8,3.9,2.5,3.5,1.7,7,3.4,10.8,4.4,2,.5,4.1.9,6.2.9h2.2c.6,0,1.2-.2,1.8-.6.3-.2.5-.4.5-.8s-.4-.6-.8-.7c-.4,0-.9.1-1.3-.3.2,0,.5,0,.6-.2h.9c.4.2,1.1.2,1.1.9s-.4,1-.8,1.4c-.8.6-1.7.5-2.6.7h-.8c-7.5-.3-14.3-2.7-20.5-6.7-3.6-2.3-6.4-5.4-9.1-8.6-.7-.8-1.4-1.7-2.2-2.5,0-.2,0-.4-.3-.4s-.2.2-.2.3c0,.5-.3.4-.6.3-.3-.5,0-1,0-1.5v-.7c-.9-1-1.7-2-2.8-2.7-.2,0-.4,0-.5-.2-.7-1.3-2.1-1.9-3.1-2.8,0-.3-.3-.2-.5-.3,0-.5-.5-.7-.8-1h0c1,.2,1.9.6,2.6,1.4,0,.5.6.6,1,.8,1.1,1.4,2.6,2.5,3.9,3.6.4.3.7.3,1.2.2,1.7-.3,3.2-1.1,4.6-2.2,3.2-2.6,5.1-5.9,6-9.9,0-.5,0-1-.4-1.3-2.1-1.6-3.9-3.6-5.7-5.5-.5-.5-1-1-1.5-1.3.4-.5,1.1-.6,1.6-.9,1.6-1,3.2-2,4.8-2.8,2.8-1.4,4.7-3.7,6.2-6.4.2-.2.4-.3.6-.5,0-.1.4-.3.2-.5,0-.3-.4-.2-.6-.1.9-1.2,2.1-2.1,3.4-2.7,0,.3,0,.6.5.3,0-.1.3-.3.4-.5,1-.6,1.4-1.8,2.4-2.5-.1.5-.3.9-.6,1.2-.9,1.4-2.1,2.6-3.5,3.6-.3.2-.7.3-.6,1,1.5-1.2,2.8-2.3,3.9-3.7,1.1-1.3,1.2-1.3,1-3.1,0-.6,0-1.5-.8-1.9-.5.8.7,1.4,0,2.2-.4-.3,0-.9-.6-1.1-.7.5-1.3,1.1-1.9,1.6-.6.6-1.2,1.3-2.1,1.6,0-.2,0-.3,0-.4.6-.5,1.1-1,1.8-1.3,1.2-.6,1.4-2.2,2.2-3.2v-.4c-.7-1.5-1.2-3.2-2.3-4.5-.7-.9-1.5-1.6-2.2-2.5-1.2-1.3-2.4-2.7-3.3-4.2-1.2-2.1-2.6-4-3.7-6.1-.9-1.7-2-3.3-2.5-5.1-.2-.7-.4-.8-1.1-.5-.4.2-.8.4-1.2.5-1.3.5-2.4,1.5-3.6,2.2-1.6,1-3.5,1.5-4.8,3,0,.1-.3.2-.4.3-1.6.8-3.3,1.6-4.9,2.3-2.3,1.1-4.7,2-6.9,3.2-1.1.6-2.3,1.1-3.4,1.4-1.1.3-2,1-3,1.4-.4.2-.3.6,0,.7,1.3.9,1.8,2.5,3.1,3.5.6.5,1.1,1.2,1.7,1.7.4.3.4.6.4,1-1.2-1-2.2-2.2-3.3-3.3-.9-.9-1.8-1.8-2.6-2.9-.3-.5-.7-.5-1.2-.4-5.7,1.3-11.5,1.2-17.3,1-.5,0-1,0-1.6-.4,1.3-.4,2.5,0,3.6-.3h.4c5.2,0,10.4.2,15.5-1.2,2.6-.7,5.1-1.7,7.6-2.7,2.6-1.1,5.2-2.2,7.6-3.6.4,0,.7-.2.9-.6.5-.3,1.1-.5,1.6-.7,1.1-.4,2.1-.9,3-1.7.6-.5,1.3-1,2-1.4,4.3-2.6,8.6-5.3,13.3-7.2.9-.4,1.9-.7,2.9-.9,1.2-.3,2.2,0,3.1.9,1.5,1.5,2.7,3.1,3.9,4.8,1,1.4,1.8,2.8,2.7,4.2.3.5.7,1,1,1.5,0,.3-.2.3-.4.3-1.7-2-3-4.3-4.6-6.5-1-1.3-2-2.6-2.9-3.9-.6-.7-1.2-1.1-2.2-.8-1.7.4-3.4.9-4.9,1.7-1.1.6-2.3,1.2-3.4,1.8-.8.3-.8.4-.3.8.8,2.3,2.1,4.4,3.3,6.5,1.3,2.3,2.8,4.6,4.3,6.8,1.7,2.5,3.8,4.6,6.8,5.7,2.4.8,4.6,2,6.8,3.2,3.1,1.7,6.3,3,9.5,4.5.5.2,1.1.5,1.6.7,1.4.8,3,1.1,4.7,1.1-.6.5-1.3.2-1.9,0-.2,0-.4,0-.5.1-.1.2,0,.3.2.4,2.6,1.9,5.4,3.7,8.4,4.8,1.2.5,2.4.3,3.6-.2,3-1.5,5.8-3.1,8.4-5.2,2.2-1.7,4.1-3.8,5.2-6.4,0-.1,0-.2.3-.3,0,1.2-.6,2.2-1.2,3.1-.9,1.3-2,2.4-3.2,3.3-3.5,2.7-7.3,5.1-11.3,7.1-.7.4-1.4.8-2.1,1.2-5.8,3.1-11.6,2.9-17.5.1-1.8-.8-3.4-2-5-3.1-1.3-.9-2.6-1.9-3.9-2.9-.7.9-1.4,1.8-2.1,2.8-.1.2-.3.5-.3.7,0,.9-.5,1.5-1,2.2-1.1,1.7-2.6,3.1-4.2,4.5-.6.5-.8,1-.6,1.8.3,1.1.6,2.2,1.1,3.2,1,2,2.1,4,2.9,6.2.7,1.7,1.9,2.8,3.5,3.7,3.7,1.9,7.6,3,11.8,3.3,3.5.2,7,.9,10.4,1.6,1.7.4,3.4.4,5.1,0,3.6-1,7.2-2.2,10.3-4.5,2.3-1.6,4.3-3.4,5.9-5.7,3-4.4,6-8.8,8.4-13.7.7-1.5,1.4-2.9,1.9-4.5.3-1.1.5-2.2.6-3.3.2-2.7.8-5.3,1.9-7.8.8-1.8,1.4-3.6,2-5.4.1-.3.3-.6.1-1.1-1.6.1-3.2-.5-4.8.2-.5.2-1,.2-1.5.1-1.4-.1-2.4.4-3.3,1.4-.9.9-1.7,1.9-2.6,2.9-1.4,1.6-3,2.8-5,3.5s-3.8,1.7-5.9,2.2c-1.4.3-2.6,1.3-3.8,2.1-1.4.9-2.9,1.7-4.5,2s-3.2.2-4.7,0c-.2,0,0-.2,0-.3h2.6c1.3.1,2.5-.2,3.7-.8,1.3-.7,2.6-1.5,3.8-2.4.2-.1.5-.2.4-.6,0-.3-.3-.4-.6-.3-1.4.1-2.8-.3-4.2-.5-.9-.2-1.8-.4-2.5-.9-3.4-2.4-6.4-5.3-8.3-9.1-.2-.4-.4-.8-.4-1.3,2,3.3,4.5,6.2,7.4,8.7,1.2,1,2.4,1.9,3.9,2.3.1,0,.3.1.4,0,0,0,0-.2-.1-.3,0-.3-.2-.3-.3-.4-1.3-.9-2.6-1.9-4-2.8-.4-.3-.8-.6-1.1-1.2.8.6,1.6,1.2,2.3,1.7.2.2.5.4.8,0,.2-.3,0-.5-.3-.6-2.9-2.2-5.3-5.1-8.1-7.4-.4-.4-.9-.7-1-1.3,3.5,2.4,6.2,5.5,9.4,8.2,1.9,1.7,4.1,2.9,6.3,4.1.5.2,1.1.2,1.4.8,0,.2.2.2.3.1.5-.3,1.1-.2,1.5-.7-.4-.4-.9-.5-1.4-.6-2.6-.9-4.8-2.5-6.8-4.3-2-1.7-3.7-3.7-5.5-5.6,0,0-.1-.2-.2-.3h0c.4,0,.8.3,1.1.6,1.3,1.3,2.6,2.5,3.8,3.8,2.1,2.3,4.5,4.2,7.5,5.1.6.2,1.4.3,1.7,1.1.2.4.6-.1,1-.2.1,0,.2,0,.4-.1q1-.3.5-1.1c-1.6-2.6-3.8-4.7-5.8-7-.2-.2-.3-.5-.6-.2s0,.4,0,.6c1.1,2.3,2.4,4.4,4.3,6.1.4.4.9.7.9,1.3-.8-.7-1.5-1.4-2.3-2.1-1-1-1.9-2.1-2.5-3.4-.8-1.7-1.8-3.3-2.8-4.9-.2-.2-.6-.5,0-.8.3-.2,0-.5-.1-.6-.4-.6-.9-1.3-1.4-1.9-.5-.7-1-1.4-1.2-2.2.4.4.8.8,1.1,1.2,3,4.6,7.2,8.4,10.6,12.7.2.2.3.3.6.2,2.5-1.5,4.7-3.4,6.7-5.5-1.4-1.6-2.6-3.9-2.7-5.1.7,1.1,1.3,2.1,2,3.1.2.3.5.6.7.9.2.2.4.3.7.2s.2-.4.1-.6c0-.3-.2-.6-.3-1,.5.2.6.8,1,1.1,1.2-.8,2.1-1.7,3.2-2.7-1.8-1.3-3.5-2.4-5-3.7-2.8-2.5-5.6-5-8.5-7.5-3.1-2.7-6.4-5.2-9.5-7.9-2.9-2.5-5.1-5.5-6.2-9.2-1.4-4.6-2.6-9.3-3.7-14-1.1-4.9-2.1-9.9-3.1-14.9-.3-1.3-.5-2.6-.6-3.9-.1-1.5-1-2.7-2-3.8,0,1.9.1,3.8.4,5.7.4,2.5.8,5,1.2,7.5.6,3.4.9,6.8,2,10,1.3,4,2.2,8.2,3.1,12.3.4,1.9,1,3.9.9,5.8-.1,2.3.5,4.4,1.7,6.3.2.3.3.5.4.8,1.4,3.1,2.7,6.3,3.4,9.6-1-1.5-2.2-2.9-3.3-4.3-.3-.4-.8-.7-.7-1.3.5.9,1.4,1.3,2,2.1.2.3.4.6.6.8,0-.5-.1-.8-.3-1.1-1.1-3-2.1-6-4-8.8-.3.8-.2,1.3.1,1.8.9,1.2,1.4,2.7,2,4.1.1.3.3.5,0,.8-.7-1.6-1.3-3.3-2.2-4.8-.2,0-.3,0-.3.1-1.3,4.7-3.2,9.2-5,13.7-1.3,3.1-2.6,6.2-3.6,9.5-.2.8-.5,1.5-.5,2.4-.5-.2-.4-.6-.4-1,.4-2.2,1-4.2,1.8-6.3,2.1-5.1,4.1-10.1,6.1-15.2.7-1.7,1-3.5,1.4-5.3,0-.3.1-.7,0-1-.5-1.3-.5-2.7-.5-4,0-2.3-.5-4.6-1-6.8-.6-3.2-1.5-6.4-2.3-9.6-.3-1.2-.9-1.8-2.1-2-.8,0-1.5-.3-2.2-.5-2-.5-4.1-1.9-5.6-3.8,1.7.8,2.9,2,4.5,2.7,1.5.6,3.1,1,4.9,1.4-.6-2.5-1-5-1.4-7.4s-.7-4.8-.9-7.2c-.4-3.8-.8-7.6-2-11.3,0-.2-.1-.4-.2-.6-.2-.6-.5-.7-.9,0-1.3,1.6-3,2.7-4.5,4-2.4,2-5.1,3.7-7.7,5.5-1.1.7-2.2,1.5-3.3,2.3-.7.5-1.4,1.1-2.2,1.5-1.3.7-2.5,1.5-3.5,2.6-.8.9-1.9,1.5-2.9,2.1-1.5.9-3.1,1.8-4.5,2.9-.3,0-.6.4-.9.7-.4,0-.7.2-.9.4-1.3,1.4-3,2.5-4.3,3.9-.7.7-1.4,1.4-2.3,1.9-1.9,1.3-3.6,2.9-5.6,4.1-1.6,1-3.3,1.8-4.9,2.7-2,1.1-4,2.1-5.9,3.3-2.9,1.8-6.1,3.3-8.8,5.3-3.3,2.4-6.7,4.5-9.8,7.1-.8.7-1.7,1.3-2.5,2-.3,0-.5.2-.7.5h0c-.7.2-1.1.9-1.6,1.4-.7.6-1.3,1.1-2,1.7-.6.1-.8.8-1.4,1,.5-1.1,1.2-1.9,2.2-2.4.9-.4,1.5-1.2,2.2-1.8.4-.3.7-.8,1.1-.9.9-.3,1.5-.9,2.1-1.5,0-.2.2-.4.4-.5,1.9-.7,3.2-2.3,4.9-3.3,1.2-.8,2.2-2,3.5-2.6,1.1-.6,1.8-1.7,3.1-1.9,1.2-1.3,2.9-1.8,4.4-2.7,1.6-1,3.2-2,4.9-2.9,1.5-.7,2.8-1.7,4.3-2.3.9-.4,1.4-1.3,2.5-1.4.6,0,1-1.1,1.9-1,.4-.6,1.1-.9,1.7-1.2.2,0,.2-.3.4-.5.2,0,.3-.2.2-.3l1.3-1.3c.2,0,.5,0,.6-.2,0,0,.2,0,.2-.2.3,0,.6-.2.6-.6h0c.3,0,.7,0,.9-.4h0c.3,0,.5-.3.6-.6h0c0,0,.2,0,.2-.2,1-1.2,2.2-2.1,3.5-3.1.2-.2.4-.3.5-.6,0,0,.2,0,.2-.2h0c0,0,.2,0,.2-.2.4,0,.2-.6.6-.8.6-.2,1.2-.4,1.6-.9.2,0,.4-.2.5-.3,1.7-1,3.4-2.2,5.2-3.1,1-.5,1.7-1.2,2.5-2s1.3-1.1,2-1.6c3.5-2,6.6-4.4,9.9-6.6.9-.6,1.8-1.3,2.6-2s1.6-1.2,2.2-2.1h0c1.1-.7,1.7-1.9,2.7-2.8.2-.2.3-.4.5-.6h.3v.2c-.1.3-.3.5-.5.7-.3.5-1,.8-1.1,1.7.7-.7,1.3-1.3,1.9-2,.3-.3.6-.6.7-1,.1-.2-.2,0-.3,0,0,0-.1-.2-.2-.3.3-.3.4-.7.2-1.1-.6-1-1.1-1.9-1.5-3-.4,0-.5.4-.6.6-.7,1.4-1.6,2.8-2.7,4-.8,1-1.7,1.8-2.3,2.9h0c.4-.7,1.2-1.2,1.3-2.1h0c.4,0,.6-.3.7-.5,1-1.6,2.1-3.1,2.8-4.8.2-.4.3-.7.2-1.1-.2-1.9-.3-3.9-.5-5.8,0-.5-.2-.9-.9-.9-.2.4.1.7,0,1,0,.5.4,1.2-.2,1.6h0c-.1-.7.1-1.6-.7-2.3,0,.3,0,.5-.1.7-.3,2.1-.7,4.1-1.6,6-1.3,2.6-3,4.9-5.2,7-1.2,1.2-2.6,2.2-3.5,3.5s-1.8,2.6-2.8,3.8c0,.2-.3.3,0,.5.2.2.4,0,.6,0,0,.4-.4.7-.7,1.1-1,1.2-2.3,2.2-3.4,3.3-.6.4-1.1,1-1.6,1.4,0,0-.2.2,0,.3,0,.2.3.2.4,0,.5-.4,1-.9,1.5-1.4,0,0,.5-.4.3,0-.2.4-.6.8-1,1.1-.7.7-1.4,1.3-2.1,2-.5,0-.7.8-1.4.7.3-.7,1.3-.9,1.5-2-.8.5-1.2,1-1.6,1.6-.2.3-.4.6-.7.7,0,0-.2,0-.3,0,0,0,0-.2,0-.3,0-.2.3-.4.5-.6,1.2-1.2,2.1-2.6,3.5-3.6.7-.5,1.3-1.2,2-1.8.9-.6,1.8-1.3,2.5-2.1,0,0,.4-.3,0-.5-.2-.2-.4,0-.5,0-.8.7-1.7,1.2-2.4,2.1-1,.5-1.6,1.3-2.6,1.8,0-.2,0-.5-.2-.6-.3,0-.4,0-.5.3,0,0-.2.3-.2.4-1.1,1-2.2,1.8-3.7,2-.2,0-.4.2-.6.2-.3,0-.7,0-.9-.3,0-.2.2-.5.5-.5.5,0,1-.4,1.4-.6q.2,0,.2-.2v-.5c0-.2,0-.3-.2-.2-.8-.7-1.3-1.6-1.2-2.7v-1.2c.5,0,1,0,.6.8-.3.7,0,1.5.5,2.2.2-.5,0-.9,0-1.2,0-.8,0-1.5.3-2.2.9-1.7,1.9-3.3,3.5-4.5,1.3-.9,2.4-2.1,3.1-3.5.3-.6.7-1.1,1-1.6,1.1-1,2.3-2,3.2-3.6,0,.8-.3,1.1-.6,1.4-.8.9-1.5,1.9-2.4,2.8s-1.2,1.2-1.3,2.1c-.8,1.1-1.7,2.1-2.8,2.9-.6.5-1.2.9-1.6,1.6,0,0-.2.2,0,.3,0,0,.2,0,.2,0,1.9-1.2,3.4-2.8,4.7-4.6.2,0,.3-.3.5-.4h.2v.3s0,.2,0,.2c-1.1,1.5-2.4,2.8-3.8,3.9-.2.2-.4.4-.6.5-.2.2-.3.3,0,.5.2,0,.3,0,.4,0,.6-.4,1.3-.8,1.8-1.3,1.1-1.3,2.5-2.1,3.9-3,1.2-.7,2.5-1.2,3.7-1.9.4-.2.8-.6,1.4-.6,0-.8.9-.7,1.1-1.2,0,.3,0,.5-.3.6-1.1.7-2.1,1.7-3.3,2.4-.8.4-1.3,1-1.8,1.8-1.8,2.6-3.6,5.2-5.6,7.7,0,.2-.4.4,0,.6.2,0,.3,0,.5,0,2.5-1.8,4.9-3.7,6.5-6.3.8-1.2,1.5-2.4,2.7-3.3h0c.5,0,.7-.3.9-.5,2.3-1.9,4.1-4.2,5.4-6.9,1.4-2.1,1.9-4.5,2.4-6.9.1-.7,0-1.3-.3-2-.7-1-1.3-2.1-1.9-3.2-.5-.3-.2-.8-.3-1.2v-3.3c.5.5.4,1.2.5,1.9.1,1.7.6,3.3,1.6,4.7.3.4.7.8,1.2.9.4,0,.8.5,1.2.2.5-.3-.1-.8,0-1.2,0-1.1-.2-2-.9-2.8-.1-.2-.2-.2,0-.4.4-.8.3-1.6.3-2.4.2-1.7.8-3.2,1.4-4.8,0-.2.3-.4.2-.7,0,0-.1-.2-.2,0-.5.9-1.2,1.6-2.1,2.1-.2,0-.5.3-.6.7,0,0,0,.2.1.2.4,0,.7,0,.7-.5s.1-.2.3-.2c0,.6-.6.9-.9.9-.8,0-1.3.4-2.1,1,0-.6.3-.9.5-1.1.7-.6,1.4-1.2,2.2-1.8.9-.7,1.5-1.5,1.7-2.6.4-2,1.3-3.7,2.3-5.4,1.8-3.3,4-6.4,6.9-9.1,0,.6-.4.9-.6,1.2-2.1,2.3-3.7,4.9-5.2,7.6-1.2,2.2-2.1,4.6-2.6,7.1-.1.7-.3,1.3-.7,1.9-1,2-1.2,4.2-1.1,6.5.3,3.3,1,6.5,1.3,9.8.2,2.2,1.1,4.2,2.2,6.1,1.8,3.1,3.9,6,6.4,8.7.7.8,1.5,1.5,2.2,2.3,1.2,1.4,2.7,1.7,4.4,1.9,3.5.4,6.7-.3,9.7-2.4,3.4-2.4,6.7-5,9.4-8.1,1.6-1.8,2.9-3.9,3.7-6.1,1.1-3.3,2.7-6.5,3.9-9.7.1-.3.2-.6.6-.9-.5,1.6-.9,3-1.7,4.3-.5.9-1,1.9-.8,3.1,1-.6,1.7-1.4,2.4-2.2.2-.3.5-.6.7-.9.2-.2.2,0,.3.2-.8,1.4-1.9,2.5-3.1,3.6-.5.4-.8,1-1,1.6-1.3,3.9-3.8,7-6.7,9.8-.6.5-1.1,1.1-1.6,1.6v.2c2.2,1.6,4.5,3.2,6.7,4.9,1.3,1,2.7,1.3,4.3,1.4.2-.4,0-.7,0-1-.7-1.8-1.5-3.6-1.8-5.6-.3-1.7-.4-3.5-.3-5.2,0-.7.3-1.5.4-2.2-.4,1.9,0,3.8.2,5.7.5,3.8,1.7,7.3,3.5,10.6.7,1.3,1.1,2.9,1.7,4.3.8,1.8,1.6,3.7,2.5,5.5,1.3,2.7,3.4,4.7,5.5,6.7,1.3,1.2,2.5,2.4,4.1,3.2.3.2.6.4.9,0h.2c2.1,0,3.5-1.3,4.7-2.8.1.5-.8,1.1.2,1.5.1,0-.2.4-.3.7-.2.5-.8.8-1,1.5,2-1.4,2.3-2.6,1.1-4.2v-.4c1.4,1.2,1.6,1.7,1,3.4-.4,1.1-.4,2.4-1.1,3.5.6.2,1,0,1.4-.2.3-.2.3-.7.7-.7.6,0,.7-.5.6-.8-.2-.9,0-1.7.1-2.5,0-.8,0-1.6-.4-2.2-.7-1.2-1.6-2.3-2.4-3.5-.7.6-1.4.8-2,1.5.9.4,1.5,1,2.1,1.7-.3,0-.6-.2-.8-.5-.4-.5-.9-.7-1.6-.4-.2,0-.5,0-.7,0-.5-.2-.8,0-1.2.3-.2.2-.5.5-.7.8s-.9.5-.5,1c.3.4.8,0,1.2,0s.9-.5,1.4-.5c0,.5-.4.5-.6.8-.2,0-.3,0-.4.2-.4,0-.8,0-1.1.2-.8.2-1.6.2-2.3-.2,0-.2,0-.4.3-.5.7-.3,1.1-.9,1.6-1.4.5-.4.6-.9,0-1.5-.4-.6-1.1-.9-1.6-1.3,0-.2.1-.3.3-.3.6.6,1.5.9,2.3,1.2.2,0,.3,0,.4,0,.1-.2,0-.4-.2-.5-.3,0-.5-.2-.8-.3,0-.2.1-.3.3-.4.7.2,1.4.4,2.1.5h.9c.3,0,.6-.2.6-.4,0-.3-.2-.6-.5-.6-.8,0-1.4-.7-2.1-.8.2-.5.4,0,.7,0,1.1.4,2.2.7,3.4.4.2,1.1.8,2,1.4,2.9.7,1.3,1.7,2.7,1.4,4.4-.1.6,0,1.3,0,1.9s-.3,1.2-.5,1.9c.5,0,1.2,0,1.1.9-1.2,0-2.3,0-3.5,0-.5,0-.4.2-.1.5.2.6.6,1.1,1,1.6.7,1.1,1.3,2.3,1.7,3.6.4,1.1.7,2.4,1.3,3.4s.2,1.3.5,1.9h0c0,0,0,.2.1.3.2,2.2-.2,4.3-.3,6.4-.1.1-.2.3-.1.5v.3c-.3.6-.4,1.2-.5,1.8,0,0,0,.1-.1.2h0c-.1.2-.2.4-.1.6v.2c-.1,0-.2.1-.1.3,0,.6-.7,1-.7,1.7-.3,0-.6.2-.4.6v.7l-.3.3c-.5.9-1,1.9-1.3,2.9,0-.8.4-1.5.7-2.2,0-.2.1-.3,0-.5-.2-.1-.3,0-.4,0-.3.2-.4.4-.6.7-.6.9-1.3,1.7-2,2.5-2.6,2.7-5.8,4.4-9.2,5.9-1,.5-2,.3-3,0,.2-.4.6-.4,1-.5,5.9-.9,10.2-4.5,13.9-8.9,1.8-2.2,3.1-6.5,3.2-10.3,0-2.5-.2-4.8-1.1-7.2-.9-2.1-1.7-4.2-3.1-6-.7-.9-1.4-1.6-2.5-2s-2.1-1-2.9-1.8-.9-.8-1.4-1.1c-1-.7-2-1.5-2.9-2.3-3.8-3.3-6.7-7.2-8.3-12-.7-2.2-1.7-4.3-2.8-6.3-.4-.7-.8-1.1-1.6-1.2-2.3-.2-4.3-1.3-6-2.9-1.3-1.1-2.7-2.1-4-3.2-.1-.2-.3-.4-.4-.3-.2.2,0,.4.2.6,0,0,.1.3.3.4,1.6,2,3.3,3.9,4.8,5.9,4.2,5.7,8.7,11.3,12.8,17.1,1.3,1.9,2.8,3.5,4.9,4.7.3.2.6.4.8.9-1.4-.2-2.3-1.3-3.8-2,.3.4.3.5.4.7,2.3,2.8,3.9,5.9,5.3,9.2,1,2.5,1.7,5,1.7,7.7s-.5,3.9-.9,5.8c-1,4.2-3.2,7.8-6.2,10.9-.9.9-2,1.8-3.2,2.3-1.3.6-2.5,1.5-4,1.4-.1,0-.3.1-.4.2-1.5,1.5-3.2,2.7-4.8,4.1-2,1.8-3.7,3.8-6.2,5-.3.1-.6.3-.5.6.1.4.5.5.8.4.3,0,.6-.1.9-.2,2.3-.6,4.2-1.9,5.7-3.7.9-1,1.7-2,2.6-3,1-1,2.2-1.5,3.6-1.5s1.6.4,2.3-.4h.5c.7,0,1.4.2,2,.2s1.4.1,2,.3,1.1.6,1.7.7c-.8.3-1.4.8-1.8,1.5-.8,1.5-1.4,3.1-2,4.8h4.5c2.6.2,4.9.9,5.9,3.7,0,.2.2.3.4.2.1-1,.2-1.9.4-2.9.7-3.9,1.5-7.9,2.3-11.8.2-1,0-2.1.7-2.9,0,.3.2.6.2.9-.1,0-.3,0-.3.3,0,.8-.4,1.5-.3,2.3-.1,0-.2.2-.1.3,0,.3,0,.7-.1,1-.1,0-.2.1-.1.3,0,.3,0,.7-.1,1-.1,0-.2.1-.1.3,0,.8-.4,1.5-.4,2.3-.1,0-.2.2-.1.3-.3,1.5-.6,2.9-.9,4.4-.2,0-.3,0-.2.2v2.1c0,.4,0,.8-.3,1.2-.2,0-.3,0-.2.3-.3,1.1,0,2.2,0,3.2v4c-.1,0-.2.1-.2.2-.3.7-.4,1.4-.3,2.1.2,1.5-.2,2.9-.6,4.3-.5,1.7-1,3.3-1.5,4.9-.5,1.4-.5,2.9-1.4,4.1-.2.3,0,.8-.3,1.1-.3-.7.1-1.3.3-1.9.9-3.3,2-6.5,2.9-9.8.3-1.1.4-2.3.5-3.5,0-1.8.2-3.6.2-5.4,0-2.6-1.2-4.4-3.6-5.3-2.3-.9-4.7-.7-7.1-.5-.4,0-.6.3-.7.6,0,.4-.1.8-.2,1.1-.1.7.2,1,.8,1.3,1.4.7,2.9,1.1,4.3,1.6.8.3,1.5.6,2.2,1.1-.8-.1-1.7-.2-2.5-.5-.6-.3-1.4.3-2-.5-.4-.6-1.3-.6-1.9-1-1.5-.8-1.7-.7-1.9.9-.4,2.3-.3,4.5.2,6.7.3,1.4.6,2.8.8,4.1.2,1.2.6,2.3,1.6,3.1-.3.3-.5-.3-.8-.1s-.2.5-.4.8c-1.1,2.4-2.3,4.8-3.6,7.1-3.6,6.2-7.8,11.9-12.4,17.3-3,3.6-6.3,6.8-9.9,9.9-1.7,1.5-3.1,3.2-4.7,4.8-.5.5-.4.9-.3,1.4.3,1.1.7,2.2,1,3.3,1.2,4.3,1.9,8.7,2.8,13,1,4.9,1.9,9.9,2.8,14.8M188.1,244.5c.4-1.3.9-2.7,1.3-4h0v.3c0,1.3-.6,2.5-.6,3.9,0,0-.2.2-.2.3h0q-.2,0-.2.2c-.1.6,0,1.2-.3,1.8-.1,0-.2.1-.2.3-.1.4,0,.9-.3,1.2-.1,0-.2.1-.2.3M161.7,152.5c0-.1,0-.4-.3-.2-.2.1,0,.3,0,.4,0,.2.1.3.2.5,0,.1.2.3.4.2s.1-.3,0-.4c0-.1-.2-.2-.3-.4h0ZM123.2,173c1.2-1.1,1.8-1.9,1.9-2.4-.9.5-1.7,1.1-2.2,2.1-.2.1-.3.3,0,.5,0,0,.2-.1.3-.3h0ZM112.9,91.3c-.5.4,0,1-.4,1.4,0,.2,0,.4,0,.6.2,0,.4,0,.6,0,1.2-.7,2.2-1.7,3-2.8,1.8-2.5,3.7-4.9,5.6-7.3.2-.2.5-.4.3-.8-1.2.7-2.3,1.4-3.2,2.3-.9.8-1.7,1.6-2.9,2.1-.4,0-.7.4-.6.7.2.8,0,1.5,0,2.2-.2-.7,0-1.5-.6-2.2-.3.2-.6.4-.8.6-.3.2-.7.2-.9.5.2.3.5.3.7.4h0c0,.4.4.5.5.8-.7,0-1.1-.6-1.8-.8,0,1.4,1.7,1.2,2.1,2.3-.8-.2-1.4-.6-1.9-1.1-.3.6.3.7.4,1.1,0,0-.2,0-.3.2v-.2ZM151.4,90.3c-.2,0-.4-.2-.6,0s0,.3.2.4c3.3,4.1,7.4,7.2,12.2,9.4,2.3,1,3.8,0,4.2-2.3.2-.9.2-1.9.2-2.8v-8.9c0-.3.1-.7-.2-.9-.7.2-1.2.7-1.8,1.1-1.2.8-2.4,1.6-3.6,2.4-3.3,2.2-6.9,2.4-10.7,1.6h.1ZM141.4,81.2c.3,1.3.6,2.5,1.3,3.6.9,1.3,1.8,2.7,2.1,4.2.6,2.7,1.1,5.5,1.7,8.3.7,3.6,1.4,7.1,2.3,10.6.9,3.8,1.9,7.5,2.9,11.3,1.1,4.3,3.1,8.1,6.5,11.1,2.8,2.5,5.8,4.8,8.7,7.2,3,2.5,5.9,5.2,8.9,7.8,1.6,1.4,3.3,2.7,5,4,.2.2.4.4.7.2.3-.1.2-.4.2-.7,0-1.2-.2-2.3-.6-3.4-.5-1.6-1.3-3.1-2-4.6-2-3.9-4-7.8-6.1-11.7-.3-.6-.6-1.2-.7-1.9.3,0,.4.4.5.6,2,3.7,4,7.4,5.9,11.1,1.7,3.4,3.5,6.7,3.9,10.6,1.5-.4,2.8-1.1,3.9-2.1,4-3.2,6.7-7.2,7.9-12.1.6-2.5.9-5.1.6-7.6-.7-4.5-2.5-8.6-5.1-12.3-.7-1.1-1.9-2-1.7-3.6,0,0-.2-.2-.2-.3-3-4.1-6-8.2-9.1-12.1-3.3-4.2-6.5-8.6-9.7-12.9-.1-.2-.2-.6-.7-.5v.4c0,3.1-.1,6.3-.2,9.4,0,1-.1,2-.5,3-1.1,2.5-2.1,2.9-4.6,1.8-2.8-1.2-5.3-3-7.7-4.8-2.3-1.8-4.1-4-6.1-6-2.6-2.6-5.1-5.3-7.1-8.4-.1-.2-.2-.4-.6-.3h-.3ZM159.5,173.6c-1.5-.4-2.7-.8-3.9-1.5-2-1.3-4.1-2.5-6-3.9-1.6-1.1-3.3-2-5-2.8-2.6-1.2-5.4-2.1-7.9-3.7-2.7-1.7-5.6-2.9-8.5-4.1-.2,0-.3-.2-.5,0,0,.2,0,.3,0,.5.6,1,1,2.2,1.7,3.1.8,1.1,1.3,2.2,1.3,3.6s.1,1.1.2,1.6c.2,1.1.6,2,1.6,2.6,1.7,1,3.3,2.2,4.8,3.4,3.6,2.7,7.8,3.9,12.2,4,3.5,0,6.6-1.1,9.8-2.8h.2ZM114.2,184.6c.6-.5,1.3-.8,2-1.1,2.6-1.1,5-2.5,7-4.4,2.2-2,4.3-4.1,5.8-6.8.1-.2.3-.4,0-.7-.7.3-1.1,1.2-2,1.4.6-.8,1.2-1.5,1.9-2.1s1.3-1.2,2-1.8v-.4c-.2-.2-.6.2-.9,0,.3-.8.4-1.5.3-2.1-.5,1.3-1.4,2.1-2.4,2.8-1.3,1-2.4,2.1-3.5,3.4-2.1,2.5-4.3,5-7.3,6.6-.2,0-.3.2-.2.5,1.1,0,2.1-.6,3.2-.2h0c0-.2,0,.1-.2,0-1.8.4-3.7.8-5.6,1.2-.6.1-1.2.4-1.8.7-.8.5-.8.6-.3,1.2.5.7,1.1,1.4,2,1.8h0ZM114.7,185.1c.7.7,1.3,1.3,1.8,1.9.9.9,1.9,1.6,3.1,2,2.5.9,4.9,2,7.3,3.2.3.2.7.4,1,.3-1.6-4.3-4.4-8-5.2-12.7-2.4,2.3-5,4.1-8,5.2h0ZM197.5,114.3c.9.4,1.7.9,2.6,1.3.3,0,.5,0,.7,0,.3-.5.8-.8.9-1.6-1.4.9-2.8,0-4.2.4ZM161.7,162.1s-.1-.2-.2-.2c-1.5-.7-2.9-1.7-4.2-2.7-.1,0-.3-.2-.5,0s0,.4.1.5c.6.5,1.4.9,1.9,1.5.7.9,1.6,1,2.5,1.2.2,0,.3,0,.3-.3h0ZM149.1,124.5c-.3,1.1,0,2.2,0,3.2s0,.3.2.4h.2c.2,0,.2-.3.2-.6s-.4-.4-.2-.7c.5-.9,0-1.6-.3-2.4h0ZM115.3,86.4c-1.4.5-2.3,1.2-2.6,2,.7-.7,1.7-1,2.6-2ZM199.3,113v-.3c-.7,0-1.4,0-2.1.2-.1,0-.2,0-.3.2,0,.2,0,.3.1.3.8,0,1.7.2,2.3-.5h0ZM191,153.1c-.2-.1-.2-.2-.3-.2-.3,0-.5-.3-.8,0v.2c.2.3.5.2.8.1,0,0,.1,0,.3-.2h0ZM198.3,107c.2-.2,0-.3,0-.3,0,0-.2,0-.3,0v.3c.1,0,.3.2.3,0ZM127.5,157.2s0,.1,0,.2,0,.2.2.3c0,0,.2,0,.2-.3s0-.2-.2-.2h0ZM164.4,163.2c-.1,0-.1-.2-.3-.2s-.2.1-.3.2c0,0,0,.3.3.2.1,0,.2-.1.3-.2Z"/>
          <path class="cls-113" d="M128.4,40.6c0-.5.2-.9.5-1.3,1.2-1.4,1.7-3.1,2.3-4.7.4-1.1.8-2.2,1.2-3.2,1-2.5,2.8-4.5,4.5-6.5,3.4-4.3,8-6.5,13.3-7.7,4.3-1,8.6-1.2,13-.5,3.3.5,6.3,1.7,9.4,3,3.1,1.3,5.7,3.5,8.1,5.7,2.9,2.7,5.5,5.5,7.1,9.2,0,.2.2.4.4.3.4,0,.2-.4,0-.6-.3-.8-.7-1.6-1.1-2.3-.2-.4-.4-.8-.7-1.4.9.7,1.6,1.9,1.9,3.2.2.8.3,1.5.2,2.4,0,.9.3,1.9.6,2.9.2.9.5,1.7.7,2.7,1-.8,1.3-1.9,1.7-2.9,1.3-3.7,1-7.5.2-11.3-.9-4.4-3-8.3-5.5-12-.4-.5-1.1-.7-1-1.5.6.6,1.4,1.1,1.8,1.8.9,1.4,2,2.8,2.8,4.3s1.4,3.2,2,4.8,1,3.4,1.2,5.2c0,.3,0,.5.2.7h0s0,.1.1.2v2c-.1,0-.2,0-.2.3,0,.6-.2,1.3,0,1.9v.7c0,.6-.2,1.2-.1,1.8-.1,0-.2,0,0,.3-.5,1.8-1.1,3.5-2.3,4.9-.2.2-.3.4-.2.7.2,2.6-.1,5.2,0,7.8-.2,0-.3,0-.3-.2-.1-.2-.2-.4-.5-.3v-.6h.4c0-.4-.2-.5-.5-.6-.2.3.3.5.1.8-.1.2-.4,0-.4.3s.2.3.4.3v.4c0,.2.5.4.1.6-.3.2-.4-.2-.5-.3-.7-.5-1.4-1-2-1.4q0-.3.2-.3c.2,0,.6,0,.5-.5s-.4,0-.6,0h-.4c0-.5.5-.5.7-.6.2,0,.5.2.4-.2,0-.4,0-.6.3-.2.4.5,1,.6,1.3,1.1.3-.4.1-.7,0-.9-.2-.8-.3-1.6-.2-2.4,0-.9.1-1.9,0-2.8-.6-3-1-4.7-2.6-7.5.3,0,.3.4.6.3.4-.2,0-.4,0-.6-1.5-2.7-3.2-5.4-5.5-7.5-1.9-1.8-3.6-3.6-5.8-5.1-4.1-2.7-8.7-4.4-13.5-5.2-5.4-.8-10.6,0-15.8,1.5-4.3,1.2-7.4,4-10.2,7.3-2.2,2.6-3.8,5.5-4.9,8.6-.6,1.7-1.5,3.3-2,5-.4,1.4-.9,2.8-.8,4.4,0,.7-.2,1.3-.3,2-.2.9,0,1.6.5,2.4.7.8.8,1.8.3,2.8,0,.2-.2.4,0,.5.2,0,.3,0,.4-.2.4-.5.8-1.1.2-2.1.6.4.9.6,1.4.8.4-1.3.3-2.7.6-4,.6-2.8,1.1-5.7,2.6-8.3.4-.6.8-1.2,1.2-1.8.2-.2.3-.3.4-.6h.1c.1-.3.3-.4.4-.6,0,0,.1-.2,0-.3-.2,0-.3,0-.4,0-.1,0-.2.3-.3.4-.1,0-.2.2-.2.3-.3,0-.3.2-.4.4,0-.5.4-.9.7-1.3.9-1.2,1.8-2.4,2.7-3.6.1-.2.3-.3.3-.5-.2,1-.7,1.7-1.4,2.4-.3.3-.6.7-.9,1.1-.1.2-.3.4,0,.6.2.2.4,0,.5,0,.9-.9,1.9-1.9,2.8-2.8.8-.8,1.7-1.5,2.7-2.1-.6.9-1.6,1.2-2.1,2.4,1,0,1.6-.9,2.4-1.1-.7.8-1.9,1.1-2.7,1.8-3.7,3.1-6.3,6.9-7.2,11.8-.5,2.5-.7,5.1-.6,7.6,0,1.6-.2,3.2-.3,4.7,0,.2,0,.3-.2.4v-1.8c-.4.3-.3.7-.4,1.1h0c-.2,0-.3.2-.5.3,0-1,.3-1.9.5-2.8.1,0,.2-.2.1-.3h-.2c-.1,0-.2.2-.3.3-1.3.6-2.2,1.5-2.6,2.8-.3,1.1-1.1,2-1.6,3-.5.6-1.1,1.2-1.6,1.9-.2.2-.3.4-.6.2.6-.9.9-2.1,2-2.8.2,0,.2-.7.3-1.1.4-.8.8-1.6,1.3-2.4.2,0,.3-.3,0-.5-.2-.2-.4,0-.7,0-.2-.2-.6,0-.8-.3,0-.2,0-.3-.2-.4h0c0-.3,0-.4-.3-.4-.3-.9,0-1.8,0-2.6-.2-.9.7-1.4.6-2.2.5-.3.7.6,1.1.2.6,1,.6,1.1,0,1.9-.5-.3,0-1.3-1-1.3v.6c0,.4-.3.9.3,1.1.5.2,1,0,1.4-.3.9-.8.8-1.7-.4-2.6-.4-.5,0-1.2-.4-1.8,0-.6-.6-.9-1-1.2,0-.3,0-.5,0-.8.4,0,.6.7,1.1.6.2-.4,0-.6-.3-.8-.5-.2-1-.5-1.4-.9v-.4c.6-.3.9.2,1.2.5.5.4.7,0,1-.2.2-.2.3-.5.4-.8,0-1,.4-2,.7-3,0-.3.2-.5,0-.8-.5.3-.4,1-.9,1.3h0l-.5-.6ZM131.5,51.6c0-.2,0-.5-.2-.7-.4,0-.5.2-.7.4-.4.7-.8,1.3-1.4,1.8-.1,0-.2.3-.3.4,0,.2,0,.4.1.5h.4c1.1-.3,2-1.5,2.1-2.5h0ZM129.6,51.9c-.1-.2-.3-.3-.5,0-.7.6-1.4,1-2.3.3-.2,0-.3,0-.4.2,0,0,0,.3,0,.5h0c1,1.4,1.8,1.4,2.7,0,.2-.3.3-.5.4-.8h0ZM188.5,50.1c.1,0,.3,0,.3-.2,0-.3-.2-.2-.4-.2s-.3,0-.3,0c0,.2.2.3.4.3ZM188.5,35.7s.2,0,.2-.3,0-.4-.3-.5c0,0-.2,0-.2,0,0,.3.1.5.3.7Z"/>
          <path class="cls-51" d="M185.3,13.9c-.6,0-.9-.6-1.2-1-2.8-2.9-6-5.3-9.7-6.8-3.6-1.4-4.6-1.4-8.2,0-.9.4-1.6.9-2.2,1.7-.2.3-.4.6-.5.9-.2.7-.1.8.6.8,3.4,0,6.6.8,9.7,2.2,5.2,2.4,9.7,5.7,13.2,10.4,2,2.7,3.1,5.8,3.7,9.1.4,2.4.6,4.7.4,7.2-.2-.7-.3-1.4-.4-2.1-.3-3-.6-6-1.6-8.9-.7-2-1.7-3.7-3.1-5.3-2.8-3.5-6.2-6.2-10.2-8.3-3.9-2.1-8.1-3.3-12.6-3.6-3.1-.2-6.1-.5-9.2-.4-6,.2-11.3,2.1-15.9,5.9-3.9,3.1-6.6,7-8.8,11.4-.2.5-.5.9-.4,1.5s-.3.6-.7.5c-.6-.3-1.3-.2-1.9-.2v-.4s.2,0,.3-.1c.3,0,.6,0,.8-.2h0c.3.2.5.3.8,0,.2-.2.3-.4,0-.6,0-.2,0-.5.2-.6.3-.2.5-.5.6-.9.6-1.5,1.5-2.9,2.4-4.2,1.4-2.1,3-4,4.9-5.6,3.2-2.8,6.9-4.9,11.1-6.1.8-.2,1.7-.5,2.6-.6.3,0,.5,0,.7-.2.4,0,.8,0,1.1-.2h.7c.4,0,.9,0,1.3-.1h4.8c.4.2.7.1,1.1.1q1,0,.7-1v-.7c0,0,0-.2-.1-.3,0-.8.4-1.3,1-1.8,0,.3,0,.5-.2.7-.5,1.1-.1,2.2.2,3.2.1.4.5.7.9.7s.4-.4.5-.7c0-.2.2-.5.3-.7.7-1.5,1.7-2.5,3.4-2.8.9,0,1.9-.4,3.1-.6-1-.5-1.7-.5-2.5-.6-1.3,0-2.5-.2-3.8-.5-1.1-.3-2.2-.6-3.3-.9-.2-.3-.5-.2-.8-.2-.2,0-.4,0-.7,0-.3-.3-.7-.2-1.1-.2s-1-.2-1.5-.2c1.3,0,2.6-.6,3.9,0,.7.4,1.5,0,2.3.2,1.4.3,2.9.7,4.3.6.3.2.7,0,1,0,.4.2.9,0,1.3,0,.2.2.5.2.8,0,3.8.6,7.2,2.2,10.4,4.4.3.2.6.4,1,.6,0,.1.1.2.3.2h0c0,.1,0,.2.2.2h0c1.5,1,2.3,2.7,3.7,3.7.3.2.2.6.2.8v.2Z"/>
          <path class="cls-69" d="M184.4,57.2c.8.3,1.6.3,2.4.3,1.3,0,2.2-.7,2.8-1.8.2-.4.3-.9.9-.9v1l-.2.2h0q-.2,0-.2.2c0,.6-.8.9-.6,1.5-.1,0-.2.3,0,.5-.2.5,0,1,.2,1.4.3.6.4,1.1.3,1.7h-.3c-.5-.4-.7-1-.9-1.6,0-.3-.2-.7-.6-.4-.8.6-1.6,1.1-2.6,1.1s-.9.2-1.2.6c-.2.2-.4.3-.6,0h0c.2-.3.2-.7.3-1.1-3-.9-6.2-1.8-7.7-5-.1,0,0,.2,0,.4v.6c-.7-1.2-1.7-1.1-2.6-1-2.8.3-5.7.5-8.4,1.5-.7.3-1.5.5-2.2,0,0-.4.2-.4.5-.5.4-.2.8-.4,1.3-.6,2-.6,3.1-2.1,3.7-4,1-3.1,1.8-6.3,1.6-9.7,0-2.4,0-4.8.1-7.2v-2.7c.5,1.1,1,2.3.7,3.6-.3,1.8-.5,3.6-.4,5.4,0,.6,0,1.1.8,1.2.3,0,.5.3.6.6.3.8.7,1.5.9,2.2.7,2.4,1.8,4.8,2.7,7.2.1.3.6.9.7.9,1-.7,1,.7,1.7.7s1,.6,1.3,1.1c1.1,2,2.9,3,5,3.6,1.1.3,2.2.3,3.3.2.4,0,.9,0,1-.7-.8.2-1.6,0-2.3,0-2.3,0-4.2-1.1-6-2.3,0,0-.2,0-.2-.2.1-1.1-1.1-1.5-1.4-2.7.7.4,1,1,1.4,1.4s.4.4.5.5.3,0,.5,0c.1,0,.1-.3,0-.3-.6-.9-.8-2-1.4-2.8-.3-.4-.3-.8-.4-1.2.7.3.9,1,1.3,1.6,1,1.7,2.1,3.3,3.9,4.4.3,0,.3.3,0,.4-.3,0-.5-.4-.8-.3,0,0-.1,0-.2,0-.2,0-.4-.2-.6-.3,0,0-.2-.2-.3-.2-.2,0-.5-.6-.7-.2-.2.3.2.4.4.6h.2c.2.2.4.4.7.4,0,0,.2,0,.3,0,.2.2.5.2.8.3v.3ZM167.7,54.9c2.5-.2,4.9-.2,7.3-.3v-.4c-.6-2.4-1.2-4.7-1.8-7.1-.3-1.2-.6-2.5-1.2-3.6-.2-.5-.4-.8-1-.8.2,2.2-.4,4.2-.9,6.2-.6,2-1.3,4-2.3,6h-.1ZM176,54.8c-.1-.7-.4-1.4-1-2.2.3,1,.3,1.7,1,2.2Z"/>
          <path class="cls-109" d="M202.5,97.2c0-.3.5-.6.2-.8-.4-.4-.5-1-1-1.2-.7-.4-1.5-.6-2.3-.7-1.4-.2-2.7-.7-4-1.1-2.5-.9-4.8-2.2-6.8-3.9h0v-.4s.2.2.2.3c.4.5.9.8,1.4,1,1.5.6,3.1,1.1,4.7,1.5.3.7.8.9,1.5.9-.4-.3-.8-.6-1.3-.9,0,0,.1-.2.2-.2.2,0,.5,0,.6-.3,0-.3-.2-.3-.4-.4-.4-.2-.9-.3-1.3-.4-2.3-.7-4.4-1.8-6.2-3.4h0c-1.9-2.3-2.7-5-2.8-7.9,0,.4,0,.7.1,1.1.3,1,.7,2.1.9,3.2.3,1.3,1.2,2.2,2,3.2.1.2.3.3.5.2.2,0,.2-.3.1-.6-.4-1-.9-1.9-1.7-2.9.6.2.8.6.9,1,.4,1.1,1,2,1.7,3,.3.4.5,1,1.2,1,0,0,.2,0,.2,0,.7,1.3,2,1.4,3.2,1.8,1.1.3,2.1.6,3.1,1.2.8.5,1.1.4,1.8-.3.7-.7.7-1,.3-1.8-1.3-2.3-3-4.4-4.7-6.4-.3-.4-.7-.8-1-1.2-.7-.8-1.4-1.6-2.3-2.1-1.8-1-2.6-2.6-3.1-4.5,0-.4-.1-.8-.3-1.1,0-.2-.1-.6.3-.6.1,1.2.5,2.3,1,3.4.4,1,1.1,1.7,1.7,2.5.2.2.4.3.7,0,.2-.2,0-.4,0-.6-.1-.3-.3-.6-.6-.8h.3c.7.2.6-.2.4-.6-.6-.9-1.2-1.8-1.7-2.7-.8-1.3-1.1-2.8-1.8-4.2,0-.2-.1-.3-.2-.5-.2-.7-.4-1.4-.8-2,0,0,0-.5.3-.5,1.9,5.3,4.4,10.3,8.6,14.2.8.7,1.7,1.3,2.5,1.9h-.2c-1.2-.8-2.3-1.7-3.4-2.6-.2-.2-.5-.4-.8,0-.2.3,0,.5.2.6.7.9,1.5,1.8,2.2,2.6,1.4,1.5,2.4,3.3,3.6,4.9.3,0,.4-.4.6-.6.3-.5.6-.5,1.1-.2,0,0,.2.2.3.3,0,0-.2,0-.2.2q-.2,0-.3.2c-.5.3-.9.7-1.2,1.2,0,.2-.1.3.1.3,0,.4-.3.2-.4.2-.2,0-.4.3-.4.6s.3.2.5.3c.1,0,.2,0,.3.2v.5h-.5c-.4,0-.9,0-1.3-.3-.5-.3-1.1,0-1.6-.3l-.3-.3c-.3-.2-.6-.3-.8,0-.2.4.2.5.4.7.9.7,1.9,1.1,3,1.4,1.3.3,2.4,1,3.5,1.7.5.6.6,1.1.1,1.5,0,0-.2.2-.3.2h-.5ZM192.6,79c-.1,0-.3,0-.3.3,0,.4.7,1.2,1.1,1.3.2,0,.3,0,.3-.2.2-.3-.7-1.5-1.1-1.4Z"/>
          <path class="cls-115" d="M190.2,188c.4-.1.8-.4,1.1,0,.2.2.4.2.7.3.6.4,1.1.2,1.5-.4.3-.4.5-1,1.1-1.1,0,.4,0,.8-.3,1.2-.4.4-.5,1-.4,1.7,0,.3-.3.6,0,.8.1.6-.3,1.3.2,1.9-.1.1-.2.2,0,.4-.4.9.2,1.8,0,2.6,0,1,0,2-.1,3.1-.1.7.4,1.5.3,2.2-.3.4-.2.7,0,1.1v1.5c-.3.4-.1.6.3.8.1.9-.2,1.9.1,2.8v.2c-.1.2-.2.4,0,.6-.1,0-.2.2-.1.4-.2.3-.1.5,0,.8v.2c0,.3,0,.7-.1,1-.2.4-.3.7,0,1.1v.6c-.1,0-.2.2-.1.3-.1.3,0,.5,0,.8v1c-.1,0-.2.2-.2.3-.1.5-.3,1-.2,1.5-.2.2-.2.4,0,.6,0,.2,0,.3.1.5v.3c0,.5-.4,1-.1,1.6-.1.1-.2.3-.1.5-.1.2-.1.4,0,.6-.2,0-.2.2-.1.4-.3,1.5-.7,2.9-.7,4.4-.1.1-.2.3-.1.5-.3,1.1-.7,2.3-.6,3.5-.2,0-.3.2-.2.4,0,.6-.5,1-.3,1.6-.2,0-.2.2-.1.4v.7c-.1,0-.3.1-.2.3-.3.3-.2.6-.3,1-.3,2.5-.8,4.9-1.3,7.3h-.3c0-1.6.4-3,.6-4.5.3-1.6.7-3.2.9-4.8.3-2,.8-3.9,1-5.9,0-1,.4-2,.6-3,.4-2.2.9-4.4.7-6.7,0-.7,0-1.4.3-2.2.3-1,0-2,.1-2.9.1-1.7.5-3.4.4-5.1-.1-1.5-.3-3-.3-4.5s0-3-.1-4.5c0-2.2-.1-4.3-.7-6.4-.1-.4-.1-1-.7-1.1-.6,0-.8.3-1.1.7-.8,1-1.8,1.8-2.8,2.6-.8.6-1,.5-1.3-.5-.4-.9-.5-1.9-.7-2.9-.2-.9.3-1.7.7-2.4.7-1.3,1.3-2.6,1.8-4,1.1-3.4,2-6.8,2.7-10.3,0-.5.2-.9.3-1.4q.4-1.4,0-2.4s.1-.1.2,0c.5.6.8,1.2.4,2.1-.9,2.1-1.1,4.4-1.3,6.6q0,.3.6,0c-.3.3-.6.5-.7.9-.9,3.3-2.1,6.5-3.9,9.4-.3.5-.3,1-.2,1.5.1.6.3,1.1.5,1.8.9-.7,1.9-1.1,2.3-2.1h0c.5.1.5-.2.5-.5h0l-.3.2ZM190.9,188.5c-.9.5-1.5,1.3-2.3,1.8-.3.2-.6.4-.8.6-.2.1-.2.4,0,.6.2.2.4,0,.6,0,.8-.5,1.4-1.2,2.1-1.8.3-.3.6-.5.5-1.1h-.1Z"/>
          <path class="cls-118" d="M53.8,164.1c-1.7-1.6-3.4-3.3-5.1-4.9-.3-.3-.7-.6-.8-1,0-.3.3-.6,0-.8v-.3c0-.2.3,0,.4,0s.3.2.4.3c0,.3.2.6.3,1,0,.4.3.5.6.7,1,1,2,2,2.9,3,.7.8,1.4,1.6,2.2,2.4,1.2,1.3,2.5,2.6,3.9,3.6.2.2.4.3.6.5,1.5,1.7,3.3,3.2,5,4.7.7.6,1.2,1.6,2.2,1.9.3.7.8,1,1.6.8.4.5,1,.7,1.4,1.2s.6,1.1,1.5,1c.6.2.9.7,1.3,1.1.2.2.4.6.8.3.4.3.6.8,1.2.9,2,.8,3.5,2.4,5.4,3.4,0,.2.3.4.5.8-.8-.2-1.5-.4-2-1-.5-.7-1.1-1-1.9-1.3-.4-.2-.9-.3-1.2-.6-.6-.6-1.5-.8-2.3-1h0c-.4-.7-.9-1.2-1.7-1.3-.3-.3-.5-.6-.9-.7-.5-.7-1.3-1.1-2.1-1.4-1.9-1.1-3.4-2.7-5-4.2,0,0,0,0-.2-.1,0-.1,0-.2-.2-.2h0c0-.1,0-.2-.2-.2,0-.2,0-.3-.3-.3q0-.2-.2-.2c0-.1,0-.3-.2-.3,0-.2,0-.3-.3-.3,0,0,0-.2,0-.2,0-.1,0-.2,0-.2h0c0-.1,0-.2-.2-.2,0-.2,0-.3-.3-.3,0-.1,0-.2-.2-.2,0-.1-.2-.2-.3-.3,0-.1,0-.2-.2-.2-.3-.5-.8-.9-1.3-1.2-.8-.3-1.3-.9-1.8-1.5q0-.2-.2-.2c-.5-.5-1-1.1-1.5-1.7-.2-.3-.6-.5-.6-.9s0-.2-.2-.2l-.5-.2Z"/>
          <path class="cls-75" d="M189.3,63.9h0c.6,1,1,1.9,1.4,2.9.3.7.6,1.4,1.2,1.9,0,.2.2.4.4.5,0,0,.1,0,.2.2q0,.2.2.3c.1.6.6.9.8,1.5h-.2l-.8-.8c-.3-.8-.8-1.4-1.5-2.1.2,1,.5,1.7,1,2.2.8,1.5,1.7,3,2.6,4.4.6,1,1.5,1.7,2.6,2.2,0,.2-.1.3-.3.2-.3,0-.5-.4-.9-.4.2.5.4.8.7,1,.6,1,1.5,1.8,2.4,2.5,1.1.8,2.1,1.5,3.1,2.3,0,0,0,.2.1.2h0c0,0,0,.2.2.2h0c0,0,0,.2.2.2h0s.1.2.2.2c0,.2,0,.5.2.6.3.4.6.7,1,1,.1,0,.2.2.3.2v.8h-.2c-.1,0-.2-.2-.4-.3,0,0,0-.2-.2-.2h0c0,0,0-.2-.2-.2-1.3-1-2.6-2.2-3.8-3.4-.7-.7-1.4-1.4-2.1-2-.2-.2-.3-.3-.7,0-.4.2-.8-.4-1.1-.7-1.4-1.4-2.6-3.1-3.8-4.7h.1c.8.9,1.6,1.9,2.4,2.9.2.2.4.4.6.6h.3s.2-.3.1-.3c-.2-.3-.4-.6-.6-.8-1.5-2-2.8-4.2-4.1-6.3-.6-.9-1-1.9-.8-3.1.1-.8-.5-1.7-.7-2.5-.1-.4-.3-.9-.4-1.3h.5Z"/>
          <path class="cls-96" d="M138.7,216c3.5.2,6.9.6,10.4.5,1,0,1.5.3,1.5,1s-.4,1.6-1.3,1.8c-1.5.3-3.1.3-4.6,0-1.8-.3-3.6-.8-5.3-1.5-1.1-.4-2.1-.9-3.2-1.2-2.6-.7-4.8-2.2-7.3-3.2,0,0,0,0-.2-.1-.2-.1-.4-.3-.2-.5,0-.2.3-.2.5-.1.4.2.9.3,1.3.5,1.4.7,2.8,1.4,4.3,2,1,.4,2,.7,3.1,1,.2,0,.4.1.6,0h.5v-.2ZM138.3,216.5c.7.5,1.6.7,2.4,1,2.7.9,5.4,1.3,8.2,1.1,1,0,1.3-.4,1.3-.9,0-.8-.7-.6-1.2-.6-3.3-.2-6.6-.2-9.9-.6-.2,0-.5,0-.8.1h0Z"/>
          <path class="cls-30" d="M121.2,69.2c0-.3-.2-.7.2-.8.4,0,.8.4,1.3.3.2,0,0,0,.2.3-1.9,3.1-4.5,5.8-6.4,9-.5.9-1.2,1.8-1.5,2.9-.4.5-.7,1.1-.6,1.8,1.5-.6,2.7-1.5,3.8-2.9-.4,1.1-.5,1.3-1.2,1.8-1.2.9-2.4,1.9-3.7,2.7-.9.6-1.7,1.2-1.9,2.4,0,.2,0,.9-.6.7.2-.5,0-1.1.2-1.6.4-1,.9-1.7,2-1.9,0,0,.2-.2.3-.2,0-.4-.5-.2-.8-.4.9-.9,1.7-1.9,2.1-3.2,0,0,.2,0,.2-.2.4-.4.9-.8.9-1.4h0c.3-.3.2-.7.3-1,0,0,.2,0,.2-.2.3-1.2,1.1-2.1,1.8-3.1,1-1.5,2.1-2.8,3.2-4.2,0,0,.2,0,.2-.2,0,0,0-.2,0-.3.2-.4,0-.2-.3-.3h0Z"/>
          <path class="cls-11" d="M126,29.6c.4.1.8-.1,1.3,0,.7,0,.9.2.8.9-.2,1.5-.4,3-.6,4.5-.3,1.7,0,3.4-.2,5.3,1.2-1.9,1.6-3.8,2-5.7.3-1.4.5-2.8.8-4.3.1-.6,0-1.3.8-1.5h0c-1,4.4-2,8.8-3.6,13.2.9-.3.6-1.3,1.3-1.4h0c0,1-.8,1.9-.6,2.9,0,.2-.5.3-.7,0-.3-.5-.5-1.1-.5-1.7v-4.4c0-.4,0-.8-.5-.8h0c-.3-.3,0-.6,0-.9.8-.7,1-1.6.9-2.6,0-.2.2-.5,0-.7-.3,0-.4.4-.5.7h-.2c0-.4,0-.7.3-.9.3-.4.5-1,.7-1.5.2-.6,0-.9-.7-.7-.7.2-1,.8-1.2,1.4-.2.4-.2.9-.8,1.1.4-.7.4-1.6.9-2.3,0-.2.3-.4.5-.5h-.2Z"/>
          <path class="cls-87" d="M202.3,97.5v.5l-.3.3h0c-.4.2-.4.4,0,.5.5.6,1.2-.2,1.8,0,0,.5-.5.5-.8.8s-.4.3-.6,0c-.1-.2-.4-.3-.6,0-1.2,1-2.4.5-3.7.3-2-.2-3.9-.7-5.6-1.7-.4-.2-1-.4-1.4-.5s-.9-.2-.7.6h0c-.2,0-.4-.2-.5-.5,1.3.4,2.7.3,4,.2,1.7,0,3.4-.2,5,.5.4.2.8-.2,1.3,0,.7.3.8-.3,1.1-.7.2-.3.6-.4.9-.7v.4ZM199.4,98.1c-.3,0-.6,0-.6.4s.2.4.5.5c.4,0,.7.2,1.1.3.2,0,.4,0,.5-.2,0-.2,0-.5-.2-.5-.4-.2-.9-.2-1.3-.4h0ZM196.2,98.6s0,0,.1.2c.2,0,.4.2.6,0v-.2c0-.3-.3,0-.5-.2h-.2Z"/>
          <path class="cls-65" d="M207,99c0,.6-.6.8-.9,1.2-.4,0-.8,0-1.2.4-.3.5-.8,1-1.2,1.5-.3,0-.5.3-.5.7-.7.7-1.5.8-2.5.8-1.5,0-3-.3-4.4-.2-.5-.4-1.2-.4-1.8-.7-.2,0-.4-.2-.3-.5,0-.3.3-.5.6-.4.4,0,.7.2,1.1.3,1.6.4,3.2.7,4.9.6.7,0,1.2-.2,1.7-.7,1.1-.9,1.9-2.1,3-2.9.1,0,.3-.3.2-.4-.4-.7,0-1.4-.3-2.1.4,0,.4.5.6.6v1.2c.5.3.8-.4,1.2-.3.1.2,0,.4-.2.6q-.2,0-.2.2h.2Z"/>
          <path class="cls-45" d="M82.7,186c.6.3,1.3.3,1.8.9.5.4,1,.8,1.7.9,2.5,1.5,5,3,7.4,4.6,1,.6,2.1,1,3.1,1.6,0,.1,0,.2.3.2h0c0,.1,0,.2.2.2.2.3.5.5.8.6.4.2.7.5.7,1.1h0c-.2-.1-.3-.4-.5-.4-.9,0-1.2-.7-1.6-1.3-.3-.3-.6-.3-.9-.2-.5-.3-1.1-.5-1.5-1-.2-.5-.7-.2-1.1-.3-.6-.4-1.2-.8-1.6-1.3,0-.4-.4-.3-.7-.3-.2-.2-.4-.3-.5-.5,0-.5-.4-.3-.7-.2-.6-.1-.8-1-1.6-.8h0c0-.9-1-.8-1.4-1.2,0-.6-.5-.4-.8-.4h0c-.2-.5-.6-.3-.9-.4h0c0-.4-.3-.7-.7-.8-.7-.2-1.4-.4-2.1-.6-.4,0-.6-.5-1-.4,0-.5-.4-.9-.6-1.4,0,.3.4.5.7.5.6.3,1.1.6,1.7.9Z"/>
          <path class="cls-61" d="M184,90c.5.7.7,1.5,1.3,2.2,1,1.2,2.4,2,3.8,2.6,2.9,1.2,5.8,1.7,8.9,1,.6,0,1.1-.2,1.7,0,.2,0,.5,0,.7-.2-.3-.3-.7-.3-1,0-1.8,1.4-3.8,1.5-5.9,1.2-2-.3-4-.8-5.8-1.9-1.2-.7-2.2-1.6-2.7-3.1-.2-.6-.4-1.3-1-1.7h0Z"/>
          <path class="cls-99" d="M139.1,221.3c-5.3-1.1-10.4-2.6-15.3-5.1,1.1-.2,1.5-.1,3,.5,2.5,1.1,5,2,7.5,2.9,1.5.5,3,.9,4.5,1.3.2.2.5.4.7.7h0c-.1-.2-.4-.2-.6-.3h.2Z"/>
          <path class="cls-31" d="M126.2,94.3c-.6-.3-1.3-.2-2,0-.4,0-.8.2-1.1,0,2.2-1.4,11-.5,14.2,1.3-.8,0-1.4-.2-2.1-.4-2.1-.4-4.2-.7-6.3-.9-.3,0-.6,0-.8.2-.6-.3-1.2-.3-1.9,0Z"/>
          <path class="cls-72" d="M95.9,166.7c0-.2,0-.3.3,0,1.6,1.7,3.5,3.1,4.8,5.2.5.8,1.4,1.5,2.1,2.2,1,.9,1.8,2.2,3.1,2.7.4,1,1.3,1.5,1.8,2.4,0,0,0,0-.2.1-1.1-1.1-2.3-2.2-3.4-3.3-2.8-2.7-5.4-5.7-8-8.7-.2-.2-.4-.4-.5-.5h0Z"/>
          <path class="cls-24" d="M136.2,10.7c.3-.3.9-.4.8-1,0-.1,0-.4.2-.4.9-.2,1.3-1.1,2-1.5.9-.6,1.7-1.3,2.9-1.6,1.3-.4,2.4-1.1,3.6-1.7.2,0,.3-.2.5-.3,1-.2,1.9-.7,2.9-.9,1-.3,2.1-.9,3.3-.7v.2c-.8.4-1.8.5-2.6.7-1.9.4-3.6,1.3-5.3,2.2-1.1.6-2.2,1.1-3.3,1.7-1.6.9-3,2.1-4.4,3.3-.2.2-.4.5-.7,0h.1Z"/>
          <path class="cls-84" d="M136.2,10.7c.5.2.2.4,0,.6-.9.9-1.8,1.8-2.6,2.8-2.5,3-3.9,6.4-4.7,10.1v.9c-.3.3-.2.7-.3,1,0,.3-.3.2-.4.1v-.6c0-1.3.5-2.5.9-3.7.3-.9.9-1.8.7-2.8,0-.4,0-.5.2-.7.6-.6.9-1.4,1.3-2.1.4-.8.7-1.6,1.4-2.2.9-.8,1.3-1.9,2.2-2.6.4-.3.8-.6,1.2-.8h.1Z"/>
          <path class="cls-64" d="M139.2,110.2c0,.9.6,1.6.8,2.4.7,3,.4,5.9-.4,8.8,0,.2,0,.3-.1.5-.2,0-.3,0-.5.2.5-.8.5-1.8.6-2.7.2-2.2.6-4.4.2-6.6-.2-1-.4-2-1-2.8.2,0,.3,0,.5.2h-.1Z"/>
          <path class="cls-42" d="M114,94.8c0,.3,0,.5-.3.7-.7.6-1.4,1.2-2.2,1.7-.3.2-.5.4-.2.7.2.2.4.2.7,0,.4,0,.8-.9,1-.5.3.6-.6.7-.9.9-.5.3-.9,1-1.7.8v-1.8l.2-.2c1.3-.7,2.5-1.5,3.6-2.5h-.2Z"/>
          <path class="cls-108" d="M187.1,76.7c.3,2,.9,3.9,2.2,5.6.1.2.4.2.6.4h-.5v-.2c-1.9-1.6-2.2-3.9-2.5-6.1,0,0,.2.3.2.5v-.2Z"/>
          <path class="cls-89" d="M146.9,149.7c-.3.5-.3,1-.2,1.5-.4.9-.2,1.9-.3,2.8,0,.5,0,.9-.2,1.3,0,.3-.3,0-.1,0,0-2.1-.1-4.2.4-6.3.4,0,.3.4.4.7h0Z"/>
          <path class="cls-10" d="M125.3,34c.3,0,.5-.2.8-.3,0,.8-.8,1-1.2,1.4-.3.2-.6.4-.9.6-1,.4-2,.6-3.1.9h-.5c0,0-.3-.2-.6-.3,2.1-.5,4.1-.7,5.5-2.2h0Z"/>
          <path class="cls-67" d="M190.9,81.8h0c-2-1.1-2.6-2.9-3.1-4.9,0,0,.1-.2.3-.2.1.8.5,1.6.9,2.3.6,1,1.1,2,1.9,2.7h0Z"/>
          <path class="cls-2" d="M137.2,126.1c-1.1,1.2-3.3,2.5-4.9,3.1,1.4-1.1,3.3-1.9,4.8-3.2,0,0,0,0,.1.2h0Z"/>
          <path class="cls-40" d="M56.8,139.2c-.4-.3-.7,0-.9.3-.3.4-7,9-7.3,9.4-.3-.3,0-.6,0-.9h0c.4,0,6.9-8.5,7-8.9,0,0,0,0,.2-.1.8,0,1.3-.6,1.7-1.1.4-.4.8-.6,1.4-.6-.3.2-.5.4-.6.7-.4.1-.6.3-.7.7-.2,0-.3.1-.3.3h-.3l-.2.2Z"/>
          <path class="cls-90" d="M151,150.4c-1.6-.7-2.4-2.3-3.6-3.5,1.7.7,2.4,2.4,3.6,3.5Z"/>
          <path class="cls-36" d="M207,94.4v-1.6c.7.8.8,1.7,1.1,2.5,0,0-.1.3-.2.4-.2,0-.3,0-.4.3-.3.3-.4,0-.5-.2.4-.5.2-1-.1-1.5h0Z"/>
          <path class="cls-59" d="M127.5,62.5c-1,.8-1.8,1.9-2.9,2.6-.4.3-.7.6-1.1.8h-.2c1.4-1.4,2.9-2.7,4.3-4.1v.7h-.1Z"/>
          <path class="cls-95" d="M193,86.1c1.2.8,2,2.1,3.1,2.9h-.5c-1-.9-1.8-1.9-2.6-2.9h0Z"/>
          <path class="cls-117" d="M199.7,83.3c.7.6,1.5,1.3,2.2,1.9.4.3.7.6.6,1.2-.3,0-.5,0-.8,0,0-.6-.3-1-.7-1.4-.5-.5-.9-.9-1.4-1.4v-.2h0Z"/>
          <path class="cls-55" d="M123.5,66.6s.2,0,.3,0c0,0,0,0,.2,0,.2,0,.8-.2.4.4-.3.6-.8,1.1-1.2,1.6,0,0-.3,0-.3,0,0-.5,0-.8-.6-.5-.2,0-.4,0-.6,0,0-.2,0-.4.3-.5s.7-.4,1-.5c0,0,.2,0,.3,0,0,0,.2,0,.2,0h0Z"/>
          <path class="cls-85" d="M208.4,92.8c-.4-.7-1-1.3-1.5-1.9.2,0,.3-.3.5,0,.3.2.7.5,1,.7,0,.2,0,.4.2.6.4.2.4.5.3.9-.2,0-.3,0-.5-.2h0Z"/>
          <path class="cls-5" d="M124.3,33.1c.4,0,.6.2.7.6-.6.2-1.2.3-1.9,0-.5-.2-.7-.5-.8-1,.7.2,1.1,1.3,2,.4Z"/>
          <path class="cls-49" d="M90.6,160c.6.5,1.1,1.1,1.8,1.6.3.3.3.6.3.9-.8-.7-1.4-1.6-2.1-2.5Z"/>
          <path class="cls-91" d="M204.8,95.1c-.4-.2-.5-.6-.8-.9-.1-.2-.3-.3-.5,0h0c.4-.2,0-.4,0-.5s0-.2-.2-.2h0c0-.2-.1-.2-.2-.3h0c-.2-.3-.6-.4-.5-.8h.2l1.5,1.5c.3.4.6.8.5,1.4v-.2Z"/>
          <path class="cls-48" d="M121.8,72.2c.5-.7,1-1.5,1.4-2.2.2-.4.4-.3.7,0,0,0,0,.2-.2.3-.7.6-1,1.5-1.7,2h-.2Z"/>
          <path class="cls-76" d="M203.5,94.1c-.3.6.6.7.5,1.3-.2,0-.3-.2-.5-.2-.3-.7-1.2-1-1.6-1.7.3-.5.9.3,1.1-.4h0c-.3.6-.2.8.6,1.1h-.1Z"/>
          <path class="cls-33" d="M132.6,72.4c.2.7-.3,1.2-.5,1.8-.2.3-.4.7-.7,1,0,0-.2,0-.2,0,.5-.9.9-1.8,1.4-2.7h0Z"/>
          <path class="cls-112" d="M192,63.5v.7h-.2c-.6-.6-1.1-1.3-1.5-2,0,0,0-.3.2-.2.3.6.7.9,1.2,1.3.1,0,.2.2.3.2Z"/>
          <path class="cls-52" d="M125.6,67.6c.4-.8.6-1.7,1.5-2.4-.3,1-.9,1.7-1.3,2.5h-.2Z"/>
          <path class="cls-63" d="M145.2,6.6c-.5.6-1,1.2-2.1,1.2.9-.5,1.5-.9,2.1-1.2Z"/>
          <path class="cls-114" d="M208.8,93.6c.1.6,0,1.1,0,1.7h-.2c.1-.6-.2-1.2-.2-1.8.1,0,.2,0,.3,0h0Z"/>
          <path class="cls-66" d="M93.4,163.6c.8.1,1.2.6,1.3,1.4-.4-.5-.8-.9-1.3-1.4Z"/>
          <path class="cls-100" d="M185,84.1s.2,0,.2-.2c0,.6.4,1.1.6,1.7h-.2c0-.5-.3-1-.6-1.5Z"/>
          <path class="cls-74" d="M194.3,72.5h-.1c-.2-.2-.4-.4-.3-.7,0,0,.2,0,.3,0,.4.2.4.5.2.8h0Z"/>
          <path class="cls-34" d="M47,155.2c.2,0,.3,0,.4.1.2,0,.3.3.2.4,0,.1-.3,0-.4,0,0,0,0-.2-.2-.3v-.2Z"/>
          <path class="cls-12" d="M107.6,211.8c0-.1.3-.2.5,0v1.5h0c-.4-.4-.3-.9-.4-1.4h0Z"/>
          <path class="cls-14" d="M188.8,63c-.4-.6-.7-1.1-.7-1.8.3.6.7,1.1.7,1.8Z"/>
          <path class="cls-50" d="M47.9,149.2c0,0,.4.1.4.2,0,.3-.9,2.2-1.2,2.2s.7-2.1.6-2.3h.2,0Z"/>
          <path class="cls-18" d="M125.5,65.7c-.3,0-.4.4-.8.3,0-.5.3-.3.5-.5l.2.2h.1Z"/>
          <path class="cls-16" d="M110.9,93.1c-.2,0-.2-.2-.2-.3.2,0,.4,0,.4.3h-.2Z"/>
          <path class="cls-77" d="M124.1,70c.2,0,.3,0,.4,0h0c.2.3-.4.5-.2.8,0,0-.2,0-.2,0h0c0-.2,0-.5,0-.7h0Z"/>
          <path class="cls-29" d="M59.2,136.8c-.2.2-.4.4-.5.5,0-.3,0-.7.5-.5Z"/>
          <path class="cls-116" d="M184,90v-.2c-.1,0,0,.2,0,.2h0Z"/>
          <polygon class="cls-37" points="152.6 151.5 152.6 151.5 152.6 151.4 152.6 151.5"/>
          <polygon class="cls-20" points="193 86.1 193 86.1 193 86.1 193 86.1"/>
          <polygon class="cls-83" points="191.7 82.6 191.8 82.6 191.7 82.6 191.7 82.6"/>
          <path class="cls-53" d="M191.5,82.3c0,.2,0,.3.3.3h0c0-.2,0-.3-.3-.3h0Z"/>
          <path class="cls-103" d="M191.2,82c0,.2,0,.3.3.3h0c0-.2,0-.3-.3-.3h0Z"/>
          <path class="cls-56" d="M191.2,82c0-.2,0-.3-.3-.3h0c0,.2,0,.3.3.3h0Z"/>
          <path class="cls-4" d="M166.3,44.9c-1.3,1.6-2.5,3.3-4.1,4.7-.5.4-.9.9-1.7,1.2.5-.8,1.3-1,1.6-1.7-.3-.3-.5,0-.6,0-.4.3-.8.7-1.3,1.1-.6.5-.7,1.4-1.6,1.7-.8.2-1.5.7-2.3,1.1-.8.4-1.5.7-2.3,1.1-.5.2-1.1.4-1.6.7,0,.5.8.6.5,1.2-.7-.2-1.2-.8-2-.8.2.9,1,1.4,1.2,2.3-.4,0-.4-.2-.5-.4-.6-1.3-1.6-2.1-2.9-2.6-1-.4-2-1-3-1.5s-.8-.4,0-1c-1.1-.3-2.1-.6-3.2-.8-.6,0-1.1.3-1.6.6s-1,1.1-1.4.6c-.3-.4.7-.7,1-1.1.4-.4.8-.8,1.4-.9,1.4-.2,2.4-1.2,3.5-2,.7-.5,1.5-1.2,2.6-1.4-1.6,1.3-3,2.6-4.8,3.7.5.4,1,.3,1.5.3,2.3,0,4.6,0,6.7-1.2.6-.3,1-.8,1.5-1.1,1.3-.6,2.5-1.2,3.9-1.7.5-.2.9-.4,1.2-.8,1.8-2,2.9-4.4,3.9-6.9.5-1.3.9-2.7,1.4-4,.1-.4.2-.8.5-1.1.2.2.1.4,0,.6-.7,2.5-1.4,4.9-2.5,7.3-.6,1.3-1.1,2.7-2,4-1.6,2.3-3.9,3.6-6.3,4.7-.7.3-1.4.5-2.3.8,1.2-1.1,2.8-1.2,4-2.2-2.7.4-4.6,2.4-7.2,2.9.6.9,1.5.4,2.2.7h.6c.3,0,.6,0,.6.4,0,.7.4.6.9.5,2.2-.5,4.3-1.4,6.1-2.7,1.1-.7,2-1.6,2.9-2.5.2,0,.5-.3.2-.6h0c.7,0,1.1-.5,1.3-1.3h0c.6.2.7-.4,1-.7.5-.6.9-1.2,1.5-1.7.2.4,0,.6-.2.9-.2.3-.5.6-.7.9,0,0-.2.3,0,.4.2.2.4,0,.5,0,.3-.4.6-.8.9-1.2.2-.3.4-.5.7-.4h.3ZM162.1,48.7s.2.2.3.2c.6-.6,1.1-1.2,1.7-1.8v-.3c0,0-.2,0-.3,0-.5.7-1.3,1.1-1.6,1.9h0Z"/>
          <path class="cls-41" d="M166,59.8c-.8.7-1.6,1.4-2.4,2-.3-.4-.1-.6,0-.9.8-2,2.5-2.8,4.3-2.9,1.5,0,3.2-.2,4.8.6,1.1.6,2.4.6,3.7.7.2,0,.3,0,.4.2,0,.2,0,.4-.2.5-1.2.9-2.3,2-3.4,2.9-1.2,1-2.6,1.5-4.1.7-.3-.2-.8,0-1.3-.2-1,0-1.8-.3-2.5-1.2-.1-.2-.2-.4-.2-.6,2.2,1.5,2.7,1.5,3.5,0-2.2,0-2.4,0-2.7-2h0ZM172,61.3c-.6,0-1-.2-1.3-.6-.5-.5-.7-.4-.9.3-.1.3-.3.7-.4,1.1,0,.3-.1.7.2.9s.7,0,.9-.2c.5-.5,1-.9,1.5-1.5ZM168.3,60.6s-.1-.2-.2-.2-.2.2-.2.3c0,0,.1,0,.2,0,0,0,.1-.2.2-.3h0Z"/>
          <path class="cls-6" d="M140.2,55.9c1.5-.3,2.8-.5,4.2-.8,1.5-.3,3,0,4.4.5,1.7.7,3,2.3,2.6,5.2-1-1-1.3-2.4-2.3-3.2-.4.4-.3.8-.3,1.2q-.2,1-1.4.9c.1,0,.3-.2.4-.4.3-.3.4-.7.1-1-.4-.3-.5,0-.8.3-.2.3-.4.6-.4,1s0,.4-.2.4h-.4c-.1,0-.2-.2-.3-.3-.2-.2-.1-.7-.6-.8,0,.5-.6,0-.8.6,1.2,1.1,2.6,1.5,4.2.7.2.5-.1.7-.3.8-.8.4-1.6.5-2.5.2-.8-.3-1.6-.7-2.2-1.3-1.3-1.2-2.3-2.6-3.4-4.1h0ZM144.3,59.4c0-.6-.3-.6-.5-.8s-.4-.4-.6-.6c.2.6.4,1.1,1.1,1.4Z"/>
          <path class="cls-54" d="M164,79.6c-1.7,1.4-3.4,2.8-5.3,3.9-.6.4-1.3.6-2.1.6-1.7,0-2.9-.8-4.1-1.9-1.1-1-2-2.2-2.9-3.5-.3-.4-.6-.8-.3-1.4,1.1,1.6,2.8,1.4,4.3,1.5,2,.2,4,.6,6.1.8,1.2,0,2.3,0,3.4-.2.2,0,.5,0,.8.2h.1ZM150.5,79.3c1.1,1.4,2.2,2.8,3.7,3.7.7.4,1.4.7,2.2.6,2.3-.2,3.9-1.6,5.5-3-3.8-.2-7.6-.9-11.4-1.3Z"/>
          <path class="cls-97" d="M161.4,48.1c-1.6,1-2.9,2.3-4.4,3.5-.3.2-.5.5-.8.5s-.4,0-.5-.3,0-.3.2-.4c.7-.4,1.4-.8,2-1.4.3-.2.9-.3.6-.7-.3-.4-.6,0-.9.3-.5.3-1,.5-1.4.8h0c.9-.7,1.8-1.4,2.7-2.1.9-.8,1.5-1.8,2.2-2.8s1.3-2,2.2-2.8c-.4,1-.9,2-1.7,2.8-.7.8-1.3,1.7-1.9,2.6-.5,0-1,.5-.8.9.3.6.6-.3,1-.3,0,0,.1-.2.2-.3,1.6-1.4,3-3,4.4-4.4-.4,1.1-1.6,1.8-2,3.1h0c-.6.2-1,.7-1.3,1.3h0l.2-.3Z"/>
          <path class="cls-79" d="M140.9,36.8c-1.4,1.4-3,2.5-4.1,4.2-1.6,2.3-2.3,4.8-2.4,7.6v1.8c-.6-3.1,0-7.3,2.6-10.3,1.6-1.8,3.3-3.5,5.3-4.8.5-.4.6,0,.9.3.2.2,0,.3,0,.3-1,.6-1.5,1.8-2.7,2.2.1-.5.5-.7.8-1,.2,0,.3,0,.3-.3.4-.2.7-.4.9-.8.1,0,.3,0,.3-.2s0-.2-.2-.2c-.6,0-.9.4-1.2.8-.2,0-.3.2-.4.3h-.1Z"/>
          <path class="cls-57" d="M145.7,42.3v.2c-1.6,2.1-3,4.4-4.5,6.6,0,0-.2.3-.4.3,1.8-3.7,3.4-7.5,6.5-10.6-.7,1.2-1.5,2.1-2,3.2,0,0-.2.3,0,.4.2,0,.3,0,.3-.2h0Z"/>
          <path class="cls-111" d="M182.7,61.1c-1.5,0-2.2,0-3.8,1.4.4-.5.9-1.1,1.6-1.4,0-.3-.4-.3-.6-.5.6,0,1.2,0,1.9,0,1.1-.2,1.6.2,1.2,1.2-.5,1.5-1.2,2.9-1.9,4.4.7-1.6.8-3.4,1.6-5.1Z"/>
          <path class="cls-1" d="M153.8,24.8c-2.3.4-4.5,1.3-6.8,1.9,2.1-1.1,4.3-1.9,6.8-1.9Z"/>
          <path class="cls-28" d="M155.7,23.8c-3.3,0-6.5.5-9.2,1.4,1.1-.8,2.8-.9,4.4-1.3,1.7-.4,3.3.2,4.8,0h0Z"/>
          <path class="cls-81" d="M184.5,54.5c-1.2-.9-2.2-1.9-3.1-3.1-.6-.9-1.2-1.8-1.3-3.2,1,2.1,2.1,3.8,3.6,5.2.3.3.4.8.7,1.1h.1Z"/>
          <path class="cls-78" d="M183,45.8c-1.3-1.6-1.6-3.8-2.3-5.8.8.9,2.1,4.1,2.3,5.8Z"/>
          <path class="cls-25" d="M152.2,46.1c1.6-.7,3.2-.8,4.4-1.9-1.2,1.1-2.4,2.1-4.4,1.9Z"/>
          <path class="cls-21" d="M184.8,51.9c.9.4,1.1,1.2,1.5,1.9-.2.2-.4.4-.7.3-.3,0-.6-.4-.6-.7,0-.5-.2-1-.2-1.5h0Z"/>
          <path class="cls-104" d="M152.3,72.7c.1,1,.3,1.2,1.2,1.3.4,0,.8,0,1.3.2-.7.3-1,.2-1.8,0-.9-.2-.5-1-.6-1.5h0Z"/>
          <path class="cls-22" d="M187,47.4c-.2-.2-.3-.2-.3-.3,0-1.3-.8-2.3-.8-3.6.6,1.2,1.5,2.3,1.1,3.8h0Z"/>
          <path class="cls-8" d="M140.5,25.8c-.7.5-1.8,1.4-2.9,2.2,1-1.1,2.2-1.9,2.9-2.2Z"/>
          <path class="cls-70" d="M160.2,74.9c-.8.4-1.6.6-2.5.6.7-.4,1.3-1.4,2.5-.6Z"/>
          <path class="cls-9" d="M172.3,34.2c.5.9.6,1.9.9,2.9-.6-.9-.8-1.9-.9-2.9Z"/>
          <path class="cls-98" d="M180.7,43c.4.9.8,1.7,1,2.6-.7-.7-.8-1.6-1-2.6Z"/>
          <path class="cls-92" d="M145.4,46.1c.9-.9,1.9-1.8,2.8-2.7,0,0,.1,0,.2.2-.8,1-1.7,1.9-3,2.5Z"/>
          <path class="cls-73" d="M151.4,29.2c.5-.2.9-.3,1.5-.5-.4.2-.6.2-.7.3-.2.2-.4.3-.8.1h0Z"/>
          <path class="cls-107" d="M177.5,60.4c.2.2.7-.2,1,.3-.4,0-.8,0-1-.3Z"/>
          <path class="cls-38" d="M150.5,61.2c-.5,0-.9,0-1.3-.4.5,0,.8.4,1.3.4Z"/>
          <path class="cls-32" d="M144.6,53.3c-.5,0-.9,0-1.3-.2.5-.2.8,0,1.3.2Z"/>
          <path class="cls-86" d="M158.9,38.5c0-.4.2-.6.4-.9,0,.4-.2.6-.4.9Z"/>
          <path class="cls-39" d="M139.7,55s.2.2.2.3h0c0,0-.2-.2-.3-.4h.1Z"/>
          <path class="cls-15" d="M166.3,44.9v-.3c.2,0-.2.2,0,.3h0Z"/>
          <path class="cls-19" d="M183.6,61.4s.1,0,0,.2h0v-.2h0Z"/>
          <polygon class="cls-17" points="184.5 54.5 184.5 54.5 184.5 54.5 184.5 54.5"/>
          <polygon class="cls-110" points="184.8 51.9 184.7 51.9 184.8 51.9 184.8 51.9"/>
          <path class="cls-71" d="M190.6,185.5c.7-1.6,1.9-2.9,2.7-4.4-.4,1.8-1.4,3.2-2.7,4.4Z"/>
          <path class="cls-27" d="M190.3,172.4c-.5,1.5-.9,3-1.9,4.2.4-1.4,1-2.8,1.9-4.2Z"/>
          <path class="cls-47" d="M189.7,188.5c0-.3-.3-.3-.5-.2-.4,0-.5.5-1.1.4.6-.4,1.1-.8,1.6-1.1.6-.3.3.3.5.4h0c-.6,0-.7.1-.5.5h0Z"/>
          <path class="cls-101" d="M173.2,182.7c-1.3,1.6-1,3.7-2.4,5.6.3-1.1.5-1.9.8-2.7.1-.4.5-.7,0-1.1-.3-.2,0-.4.1-.5.4-.6.9-1,1.5-1.3h0Z"/>
          <path class="cls-3" d="M122.9,170.9c-.2,0-.2.3-.3.5-.2,0-.4.2-.4.1,0-.2,0-.3.2-.4.2-.1.4-.2.6-.2h0Z"/>
          <polygon class="cls-88" points="127 167.1 127.1 167.2 127.1 167.2 127 167.1"/>
          <path class="cls-105" d="M183.5,13.8c-3.2-2-7.3-3.4-11.7-4.2,2.9-.3,8.8,2,11.7,4.2Z"/>
          <path class="cls-94" d="M181.4,13.8c.1.4.5,0,.7.3-.3.2-.4-.4-.7-.3Z"/>
          <path class="cls-68" d="M130.8,28.9v-.2c-.2,0-.1,0,0,.2h0Z"/>
          <path class="cls-23" d="M195.9,139.5s-.3.2-.3.3c-.2,1.7-1.2,2.9-2.3,4-1.6,1.7-3.4,3.4-4.9,5.2-.3.3-.5.7-1.2.7.6-.7,1.1-1.4,1.6-2,.8-.9,1.6-1.8,2.5-2.6,1.4-1.3,2.5-2.8,3.5-4.4.3-.5.5-.9,1.1-1.2h0Z"/>
          <path class="cls-106" d="M195.9,139.5c.2-.5.3-1,.5-1.5.7-1.5,1.2-3.1,1.5-4.8.5.3.2.6.2.9-.5,1.6-1.1,3.3-2,4.8-.1.2-.4.4-.2.7h0Z"/>
          <path class="cls-102" d="M126.1,81.8c-.5-.6-.8.3-1.2,0,.4-.4.9-.7,1.3-1,.4.4-.8.5,0,.9h0Z"/>
          <path class="cls-58" d="M139.6,221.5c1.1.3,2.1.4,3-.5.4.3.2.5,0,.6-.8.3-1.7.7-2.5,0-.1-.1-.3-.2-.4,0h-.1Z"/>
          <path class="cls-93" d="M126.4,33.1c0,.2,0,.5-.3.5,0-.2,0-.5.3-.5Z"/>
          <path class="cls-43" d="M172.1,94.7c-1.9,2.6-2.8,5.7-3.9,8.6-.4,1.1-.8,2.1-1.5,3,1.5-4.1,2.4-8.4,5.4-11.6Z"/>
          <path class="cls-62" d="M133.6,79.7c-.6-.3-.6.3-.8.5-.9,1.2-1.9,2.2-3.1,3,1.2-1.8,2.8-3.3,3.9-5.2,1-2,1.8-4,2.4-6.2.3,0,.2.3.2.4v.5c-.6,2.1-1.1,4.3-2.3,6.2-.1.2-.6.4-.2.8h0Z"/>
          <path class="cls-13" d="M135.1,82.5c-.4,0-.4.5-.8.5.5-1.1,3.2-5.4,3.4-5.6-.4.6-.7,1.6-1.2,2.5-.4.9-1.2,1.6-1.5,2.6h.1Z"/>
          <path class="cls-46" d="M135.8,69.1v.8c-.2-.3-.3-.5,0-.7h0Z"/>
          <path class="cls-35" d="M139.4,78.7s0,0-.1.2-.3.4-.5.2c-.2-.2,0-.4.1-.5,0,0,.2,0,.3-.2,0,0,.1.2.2.3Z"/>
          <polygon class="cls-60" points="132.3 81.8 132.2 81.8 132.3 81.8 132.3 81.8"/>
          <path class="cls-44" d="M113.9,88.9c.3,0,.4-.5.8,0-.2.3-.5,0-.8,0h0Z"/>
          <path class="cls-26" d="M113.2,91.1c.3.2.7.2.8.6-.5,0-.8,0-1.1-.4,0,0,.2,0,.3-.2Z"/>
          <path class="cls-80" d="M153.4,80.9c.5-.2,1.1-.6,1.7,0-.6,0-1.2,0-1.7,0Z"/>
        </g>
      </g>
    </g>
  </g>
</svg>