<?xml version="1.0" encoding="UTF-8"?>
<svg xmlns="http://www.w3.org/2000/svg" version="1.1" viewBox="0 0 256 256">
  <defs>
    <style>
      .cls-1, .cls-2 {
        fill: #ebd3a8;
      }

      .cls-3, .cls-4 {
        fill: #dfc292;
      }

      .cls-5 {
        fill: #f1c04c;
      }

      .cls-6 {
        fill: #fadd79;
      }

      .cls-4 {
        opacity: .6;
      }

      .cls-7 {
        fill: #eeb741;
      }

      .cls-8 {
        fill: #e5a838;
      }

      .cls-2 {
        opacity: .5;
      }

      .cls-9 {
        fill: #e8b24b;
      }

      .cls-10 {
        fill: #f7cb59;
      }

      .cls-11 {
        fill: #fad567;
      }

      .cls-12 {
        fill: #774b29;
      }

      .cls-13 {
        fill: #fbfbf7;
      }

      .cls-14 {
        opacity: .7;
      }
    </style>
  </defs>
  <!-- Generator: Adobe Illustrator 28.7.5, SVG Export Plug-In . SVG Version: 1.2.0 Build 176)  -->
  <g>
    <g id="_图层_1" data-name="图层_1">
      <g class="cls-14">
        <path class="cls-8" d="M208.2,95.9c0,.2,0,.3,0,.5.6,2.5,1.2,5,1.8,7.5-.8,2.1-2.8,4.5-2.3,6.2,2.4,7.7,4.2,15.4,5.6,23.3,1.6,9.1,1.1,18.2,0,27-1.1,8.7-3.7,17.5-7.5,25.8-.6,1.4-2,.7-2.3,2.2-.3,2-1.5,4-2.8,5.7-2.1,2.7-6.2,5-6.4,7.7-.3,4-6.1,2.3-4.9,6.4-5.9.7-8.9,6.5-14.3,8-1.7.5-2.9,3.1-5.2,1.4-.5-.6-.9-1.1-1.4-1.7-1.2,1.3-1.6,4.2-3,5.2-.9.7-2.4.3-3.5.5-6.6,3.4-14.1,3.4-21.1,5.2-4.2,1.1-8.6,1.3-13,2-.9,0-1.7-.2-2.6-.3-.4,0-.8-.2-1.2-.3-.2,0-.4,0-.5,0-1.1-1.1-4.1-.9-3.3-3,1-2.6-1.3-2.9-1.9-2.9-8-.4-15.3-2.9-22.5-6.3-.6-.5-1.2-1-1.8-1.6-11.3-3.6-18.7-12-26.1-20.5-.2-.4-.4-.8-.6-1.2-.2-.9-.4-1.7-.6-2.6-3.3-7-7.3-13.7-9.1-21.3-.4-1.6-2-3.3-.5-4.8.3-.3,2.8,1.1,3.8,2.1,4.7,5,7.3,11.7,13.5,15.3,3.9,2.3,6.5,8.8,10.6,7.6,7.8-2.2,7.4,9.4,14.9,7.5,1.2-.3,6.8,2.6,9.4,2.3,5.7-.6,11.3.3,17,0,.4,0,.9-.3,1.3-.4-.1-.3-.2-.7-.4-.8-8.6-4.5-2.9-8.5.6-12.3,1.1-1.2,3.4-1.5,5.1-2.3,1-.5,2.1-.5,1.8.7-1,4.6-.7,9.6-4.4,13.3-.3.3-.4.8-.5,1.3,0,0,.5.4.7.3,4-1.1,8.4-2,12-3.5,5-2.2,11-1.8,15.3-6,.4-.4,3.3-2.8,5,0,2.4,3.8,3.4-2.1,5.4-.9,0,0,.7-.8.7-.8-1.1-1.3-2.3-.3-3.6-.3-.7,0-1.3,0-2,0,.1-.4,0-.9.3-1.1,5.4-3.8,11-7.1,16.2-11.3,1.9-1.5,1.9-5,5.1-5.1.3,0,.5-1.1,1-1.5.6-.6.9-1-.3-1.1-.4,0-.9.2-1.3.3.4-.6.8-1.6,1.3-1.6,2-.3,1.9-1.9,2.4-3.1,1.6-3.5,3.7-6.7,4.6-10.6,1-4.4,2.6-8.9,3.8-13.2,2-6.9.6-14.8.4-22.3,0-1,.6-3.3-1.7-3.6-.2,0-.4-.6-.4-.9,0-1.4.7-3.2.2-4.3-3.1-6.4-1.4-13.8-4.2-20.3-1.7-3.9-1.1-8.6-2.2-12.8-1.7-6.3,0-12.6-.6-18.9-.2-2.7-4.5-7.9,3.3-4.2,2.6,1.2,5.2,2.9,6,5.8,1.1,3.8-1.6,3.4-4.4,3.9,2.3,2.1,5.1,6.5,2.5,9.3-.8,1.1-3.6.8-2.8,2.7.8,2.2,2.5-.3,3.8,0,4.9-.1,1.9,3.9,3,5.8,2.9,5.2-2.4,14.3,7.8,15.9.3.2.5.5.8.7Z"/>
        <path class="cls-2" d="M189.8,209.7c-1.3,4.6.5,5.9,7.7,7.4,3.7.8,7,3.3,10.5,5-1,1.3-1.7,3-2.9,3.9-1.6,1.1-2.3,1.8-1.4,3.8,3.9,8.1-4,7.1-7.2,7.9-9.1,2.3-18.4,3.5-27.7,4.8-19.4,2.7-38.9,2.9-58.4,1.1-10.3-.9-20.5-2.3-30.6-4.2-6.2-1.2-12.6-2.7-18-6.5-5.3-3.8-4-9.7,3.1-13.4,4.1-2.2,8.5-3,13-3.7,1.6-.3,5.5,0,2.9-3.9.5.3.9.6,1.4.9,4.1,2.6,7.5,6.3,12.4,7.6.2.7.4,1.5.7,2.2-3.1.7-21.2,2.8-19.8,7.9.6,2.2,5.9,3.2,7.7,3.8,3.8,1.2,7.7,1.9,11.6,2.5,15.5,2.3,31.3,2.9,47,2.4,15.4-.5,30.9-1.7,45.8-5.8,2-.5,5-.9,5.3-3.5.4-3.2-3.7-3.5-6-4.2-3.2-1-12.3-.8-10.5-6,.2,0,.4,0,.5,0,.2-.2.4-.4.6-.6.7-.4,1.3-.8,2-1.2.2-.2.4-.4.6-.5,3.3-2.5,6.5-5,9.8-7.6Z"/>
        <path class="cls-5" d="M50.1,130.2c1.2-13.7,5.5-26.4,12.1-38.4,3.7-6.8,8.1-13.2,12.2-19.7.6.3,1.2.7,1.8,1-6.1,5.6-10,14.1-13.5,21.6-1.6,3.5-2.6,7.2-1.4,10.9,1.1,3.3,3.5,5.9.4,8.9.7-2.4-1.5-8.1-3.5-3.9-1.2,2.5.2,5.5,2.9,5.4-1.4,7.9,1.1,15.2,3.7,22.5,1.9,5.5,4.1,10.6,9.4,13.7-1.5,1.1-3.4,1.9-3.8,4-.2.3-.4.6-.6.9-.6.2-1.5.6-1.6.4-1.7-2.5-3.4-4.9-4.9-7.5-2.5-4.5-2.1-10.3-6.8-13.7,0-.8,0-1.5,0-2.3,1.3-.5.9-1,0-1.5,0-.2,0-.4,0-.6-.6-2.8-.4-6.1-2-8.2-1.6-2.1.6-4.3-1.3-5.8-1.4,2.6-.4,5.2-.3,7.9,0,1.1,3,1.5.6,3-.5,0-1-.2-1.4-.3-.2,0-.4-.2-.6-.3-.4.7-.8,1.3-1.2,2,0,0-.2,0-.3,0Z"/>
        <path class="cls-9" d="M176.8,219.5c-.2,0-.4,0-.5,0-2.7.9-4.7,3.6-7.9,3.4.6-1.8,1.1-3.6,1.7-5.4,2.3,1.7,3.5-.9,5.2-1.4,5.4-1.5,8.4-7.3,14.3-8-1.2-4.1,4.7-2.4,4.9-6.4.2-2.7,4.3-5,6.4-7.7,1.3-1.7,2.5-3.7,2.8-5.7.3-1.6,1.7-.8,2.3-2.2,3.8-8.3,6.4-17.1,7.5-25.8,1.1-8.8,1.6-17.9,0-27-1.4-7.9-3.3-15.6-5.6-23.3-.5-1.7,1.5-4.1,2.3-6.2.2.4.5.8.6,1.3,4.8,14.3,7.6,29,7,44.2,0,.3,0,.6,0,.9-.6,1.3-2.1,2.5-.1,3.9,0,.1,0,.3,0,.4-1.9,10.7-4.6,21.2-9.1,31.1,0,0,0,.2,0,.2-1.1,1.8-2.1,3.7-3.2,5.5,0,0,0,0,0,0-.8,1.3-1.6,2.5-2.3,3.8,0,0-.2.2-.3.3-.7,1-1.4,1.9-2.1,2.9-.3.4-.6.8-.8,1.2-1.6,1.8-3.3,3.7-4.9,5.5,0,0-.2.2-.3.3-.8.8-1.5,1.6-2.3,2.3,0,0,0,0,0,0-.8.8-1.6,1.5-2.3,2.3,0,0,0,0,0,0-3.3,2.5-6.5,5-9.8,7.6-.2.2-.4.4-.6.5-.7.4-1.3.8-2,1.2-.2.2-.4.4-.6.6Z"/>
        <path class="cls-13" d="M7,121.3c0-2,1.4-2.4,2.5-2.3,6.3.5,10.3-1.5,11-8.5.2-2.2,2-2.8,2.6-1.5.4.9.8,1.8.9,2.7.7,8.3,7.3,10.2,13.5,12.6.5.2.8.8,1.3,1.2-.6.4-1.2,1-1.9,1.1-6.5.5-12.5,1.6-15,8.9-.1.4-1,.7-1.5.7-.3,0-.9-.7-.9-1.2-.3-7.4-6.4-9.6-11.4-12.7-.5-.3-.8-.8-1-1.1Z"/>
        <path class="cls-9" d="M94.5,220.2c-4.9-1.3-8.3-4.9-12.4-7.6-.5-.3-.9-.6-1.4-.9-.4-.4-.8-.8-1.2-1.1-.9-.9-1.9-1.8-2.8-2.7,0,0,0,0,0,0-3.9-4.6-7.9-9.1-11.8-13.7-10.9-15.8-16-33.4-15.5-52.6.8.8,1.3,2.3,3,1.8.1,9.3,1.1,17.1,4.2,25.9,2.7,7.6,5,14.8,10.5,21,.2.9.4,1.7.6,2.6-.3.2-.5.4-.8.6.4.2.9.4,1.3.6,7.4,8.4,14.9,16.9,26.1,20.5-2.3,1.9.4,3.8.1,5.7Z"/>
        <path class="cls-11" d="M75.6,70c6.1-7,9-15.6,11.1-24.2,6.1-24.7,33.6-42.7,58.8-38.4,28.3,4.8,43.6,23.7,53.4,48.6,1.4,3.5,2.4,7.1,3.6,10.6-.2.1-.4.2-.6.3-1.8-4.8-3.7-9.6-5.5-14.3-8.4-20.1-21.2-35.7-42.9-42.2-13.2-4.2-27.4-3.2-39.7,3.1-10,5.1-20.6,15.3-23.6,26.4-4.3,10.3-8.7,20.6-13,30.9-.6-.3-1.1-.6-1.7-.8Z"/>
        <path class="cls-13" d="M217.9,151c2.5-.7,5.1-1.8,6.7-3.9,1.8-2.3,2-5.8,2.9-8.5,1.6,2.3,2.7,5.6,5,7.3,2.3,1.7,5.6,1.6,8.2,2.6-1.5,1.6-1.7,2-3.7,2.8-1.5.5-2.7.8-3.6,2.2-1.6,2.4-.6,5.6-1.3,8.2-2.5-1.8-2.9-5.1-5.6-6.8-2.8-1.8-6-.6-8.9-1.8,0-.6.2-1.3.3-1.9Z"/>
        <path class="cls-12" d="M202,66.9c.2-.1.4-.2.6-.3,2.4-1.4,5.2-3,6.7-5.5,1.8-3-.1-6.1,1.7-8.7,1.4,2,1.6,3.4,2,5.8.8-.7,3.4-4.1,4.5-4.3,2.9-.6,1.2,2.2.5,3-4,4.5-9.7,8.3-14.3,12.2-.3.3-.7.5-1,.8l-6.1,3.6c-1.3-.3-2.9,2.2-3.8,0-.7-2,2-1.6,2.8-2.7,2.1-1.3,4.3-2.5,6.4-3.8Z"/>
        <path class="cls-12" d="M75.6,70c.6.3,1.1.6,1.7.8.2.3.4.6.5.9-.5.5-1.1.9-1.6,1.4-.6-.3-1.2-.7-1.8-1-7.4-3.9-13.6-9.2-19.3-15.2-.6-.6-1.5-1.2-.5-2.2,1-1,1.6-.1,2.3.5,1.2,1.1,2.4,2.2,3.6,3.3.2-1.4.3-2.9.7-4.3.2-.6.8-1.1,1.4-1.6,0,0,1.1.7,1,.9-2.7,10.5,6.3,12.3,12.1,16.5Z"/>
        <path class="cls-1" d="M68.5,248.9c-1.1-.5-5.5,2.3-5.9-2.9-.2-2.9,2.2-3.9,4.7-3.6,3.7.4,7.3,1.2,11,1.8-1.1,4.5-4,5.9-9.8,4.7Z"/>
        <path class="cls-13" d="M241.7,196.5c-6.1-2.4-4.2-12.7,2.7-10.7,2.7.8,3.7,3.7,3.4,6.3-.4,3.3-3.2,4-6.1,4.5Z"/>
        <path class="cls-8" d="M52.4,143.5c-1.7.5-2.1-1-3-1.8.2-3.8.4-7.7.6-11.5,0,0,.2,0,.3,0,3.4.6,4.9,3.1,5.8,6.1,0,.2,0,.4,0,.6-.2.5-.4,1-.6,1.5,0,.3,0,.6,0,.9-.3.5-.6,1-.9,1.5-.8,1-1.5,1.9-2.3,2.9Z"/>
        <path class="cls-3" d="M232.6,93.5c-.7-4.9-3.6-7-6.5-9,3.4-1.4,4.2-1.8,5.6-5.1,2.3,3.5,2.9,3.7,7.2,4-1.7,1.4-3.3,2.4-4.4,4.4-.9,1.8-1.3,3.9-1.9,5.7Z"/>
        <path class="cls-1" d="M196.6,248.1c-1.2-.2-4-.4-3.8-2.8.4-4.7,4.8-2,7.3-3,1.5-.6,5.1,0,4.7,2-.7,3.5-4.3,3.9-8.3,3.8Z"/>
        <path class="cls-13" d="M27.6,72.4c-1.4-2.2-3.9-1.8-5.8-2.7,1.5-2.2,2.5-5,4.6-6.2,1.1-.6,3.8,1.7,5.9,2.6-1.5,2-3,4.1-4.6,6.3Z"/>
        <path class="cls-1" d="M217.7,149.3c.6-15.2-2.2-29.8-7-44.2-.1-.4-.4-.8-.6-1.3-.6-2.5-1.2-5-1.8-7.5,2.1,6.6,4.6,13.1,6.3,19.9,1.7,6.9,3.1,13.9,4,20.9.5,4-.6,8.1-.9,12.2Z"/>
        <path class="cls-13" d="M26.9,193.1c-.2,4.4-7.8,2.8-6.8-1.8,1-4.8,6.8-2.3,6.8,1.8Z"/>
        <path class="cls-13" d="M231.5,39c.3,4.9-7,3.9-6.3-.7.6-3.9,6.4-3.5,6.3.7Z"/>
        <path class="cls-1" d="M55.3,25.6c-.6,3.8-6.4,4-6.3-.2,0-4.1,6-3.8,6.3.2Z"/>
        <path class="cls-1" d="M38,233.4c1.9,0,3.8-.3,3.7,2.5,0,3.2-2.5,1.9-4,2.2-2.1.4-3.5-1-3.4-2.8,0-2.3,2.3-1.7,3.7-1.9Z"/>
        <path class="cls-1" d="M226.8,234.7c-1.2-.6-3.4.2-3.7-2-.2-1.5.9-2.7,2.5-2.3,1.6.3,4-.6,4.3,2.1.2,2.1-1.6,2-3.2,2.2Z"/>
        <path class="cls-13" d="M75.2,17.4c1.1,1.2,2.1,2.3,3.1,3.4-2,1.4-3.9,4.1-5.9,1.7-1.9-2.4,1-3.5,2.8-5.1Z"/>
        <path class="cls-1" d="M219.9,203.2c-1,3.4-6,2.8-5.3-.9.7-3.8,4.8-2.2,5.3.9Z"/>
        <path class="cls-1" d="M32.2,152.2c-.2,3.4-5.2,3.3-5.3,0,0-3.5,5.3-3.6,5.3,0Z"/>
        <path class="cls-1" d="M208.4,185.4c4.6-9.9,7.3-20.4,9.1-31.1-.5,10.8-4,20.8-8.3,30.5-.1.3-.5.4-.8.5Z"/>
        <path class="cls-1" d="M202.7,69.8c.3-.3.7-.5,1-.8,1.5,8.9,3,17.9,4.5,26.8-.3-.2-.5-.5-.8-.7-1.6-8.4-3.2-16.9-4.7-25.3Z"/>
        <path class="cls-13" d="M246.4,115.6c-1-1.1-1.9-2.1-2.7-3.1,1.7-.6,4.6-2,5.2.7.6,2.8-1.6,1.1-2.5,2.4Z"/>
        <path class="cls-13" d="M198.8,10.4c.9,1.4,2.6,3,.9,4.5-1.6,1.4-2.7-.5-4.1-1.7,1-.9,2-1.8,3.1-2.8Z"/>
        <path class="cls-3" d="M38.1,91.2c-1.4-1.3-3.5-2-2.8-4.1.8-2.5,2.7-1.5,4.5-.9-1.4,1.3-2.3,2.8-1.7,5Z"/>
        <path class="cls-1" d="M64.9,194.3c3.9,4.6,7.9,9.1,11.8,13.7-4.8-3.8-8.9-8.2-11.8-13.7Z"/>
        <path class="cls-1" d="M194.7,204.8c1.6-1.8,3.3-3.7,4.9-5.5-1.1,2.3-2.6,4.3-4.9,5.5Z"/>
        <path class="cls-1" d="M205.1,191.2c1.1-1.8,2.1-3.7,3.2-5.5-1.1,1.8-2.1,3.7-3.2,5.5Z"/>
        <path class="cls-1" d="M202.8,194.9c.8-1.3,1.6-2.5,2.3-3.8.3,1.9-1.2,2.7-2.3,3.8Z"/>
        <path class="cls-1" d="M217.9,151c0,.6-.2,1.3-.3,1.9,0,.3,0,.7-.1,1-2-1.3-.5-2.6.1-3.9,0,.3.2.6.3.9Z"/>
        <path class="cls-1" d="M200.5,198.1c.7-1,1.4-1.9,2.1-2.9-.7,1-1.4,1.9-2.1,2.9Z"/>
        <path class="cls-1" d="M76.7,208c.9.9,1.9,1.8,2.8,2.7-.9-.9-1.9-1.8-2.8-2.7Z"/>
        <path class="cls-1" d="M189.8,209.7c.8-.8,1.6-1.5,2.3-2.3-.3,1.2-.9,2.2-2.3,2.3Z"/>
        <path class="cls-1" d="M192.1,207.4c.8-.8,1.5-1.6,2.3-2.3-.3,1.2-.9,2.2-2.3,2.3Z"/>
        <path class="cls-7" d="M55.6,139.1c0-.3,0-.6,0-.9.2-.5.4-1,.6-1.5,0-.2,0-.4,0-.6,0,0,.2,0,.3,0,4.7,3.4,4.3,9.3,6.8,13.7,1.5,2.6,3.2,5.1,4.9,7.5.1.2,1.1-.3,1.6-.4,0,0,.2,0,.3,0,0,.2,0,.4,0,.6-3.2,4.6,1.9,8,1.8,12.1,0,.4.6,1,1,1,.4,0,1.1-.4,1.2-.7.4-2.8,2.1-4.4,4.7-5.2.5,1.3-2.2,2.1-.3,3.6,7.4,5.8,15.7,9.4,25,10.5,6.4.7,13.2,2,19.2.5,5.1-1.2,10.4-3.6,15.3-5.8,5.7-2.6,12.7-3.1,16.8-8.5,2.4-3.1,7-2.6,8.6-6.5,1-2.3,1.8-5,5.3-4.7.3,0,.7-.5,1.1-.8-.3-.2-.8-.4-1-.7-.2-.4-.1-1-.2-1.5,4.7.5,5.1-4.5,6.6-6.7,3.2-4.7,8-10.7,1.1-16.6,2.3-.7,3.8-1.3,3.9-4.1.1-2.7-1.3-2.6-3.4-3.1,1-.9,2-1.9,3-2.8,1.2,1.4,2,2.9,1.7,4.8-.2,1.3-1,3.1-.4,3.8,1.3,1.7,1.9-.2,1.9-1,0-3.5,1.1-7.8-.5-10.5-2.2-3.9-1.8-10.2-8-11.4,5.3,1.4,4.6-8.3-.3-5.8.5-1.1,1.7-2.4,1.5-3.4-1.2-6.5-2.3-13.1-4.5-19.3-.9-2.4-.8-6.5-4.9-7.2,3.8-3.2,7.3-6.4,3.5-11.9,0-.9-.2-1.8-.2-2.8.7-9.8,2-19.6-1-29.3-.2-.6-1.2-2.4.6-1.7,5.4,2,9.7,5.8,12.4,10.6,2.9,5.1,8.1,8.7,9.6,14.7,0,1.3.2,2.7.3,4-7.8-3.7-3.5,1.5-3.3,4.2.5,6.3-1.1,12.6.6,18.9,1.1,4.2.5,9,2.2,12.8,2.9,6.6,1.2,13.9,4.2,20.3.5,1.1-.1,2.9-.2,4.3,0,.3.2.8.4.9,2.3.3,1.7,2.6,1.7,3.6.3,7.5,1.6,15.4-.4,22.3-1.2,4.2-2.8,8.8-3.8,13.2-.9,3.9-3,7.1-4.6,10.6-.6,1.2-.5,2.9-2.4,3.1-.5,0-.8,1.1-1.3,1.6.4-.1.9-.3,1.3-.3,1.1,0,.9.5.3,1.1-.4.4-.6,1.5-1,1.5-3.2,0-3.2,3.5-5.1,5.1-5.2,4.1-10.8,7.5-16.2,11.3-.2.2-.2.7-.3,1.1.7,0,1.3,0,2,0,1.2,0,2.5-1,3.6.3,0,0-.6.9-.7.8-2.1-1.3-3.1,4.6-5.4.9-1.7-2.7-4.6-.3-5,0-4.2,4.2-10.3,3.9-15.3,6-3.6,1.6-8,2.4-12,3.5-.2,0-.7-.3-.7-.3.1-.4.2-1,.5-1.3,3.7-3.7,3.4-8.7,4.4-13.3.3-1.2-.8-1.1-1.8-.7-1.7.8-3.9,1-5.1,2.3-3.4,3.8-9.2,7.8-.6,12.3.2.1.3.5.4.8-.4.2-.9.4-1.3.4-5.6.3-11.2-.7-17,0-2.6.3-8.2-2.6-9.4-2.3-7.5,1.9-7.1-9.7-14.9-7.5-4.1,1.1-6.8-5.4-10.6-7.6-6.2-3.7-8.9-10.4-13.5-15.3-1-1.1-3.5-2.4-3.8-2.1-1.5,1.5.1,3.2.5,4.8,1.8,7.6,5.8,14.3,9.1,21.3-5.5-6.2-7.8-13.4-10.5-21-3.1-8.8-4.1-16.6-4.2-25.9.8-1,1.5-1.9,2.3-2.9.3-.5.6-1,.9-1.5ZM181.2,108.9c-.2,0-.2,0-.1.3.2,0,.2,0,.1-.3Z"/>
        <path class="cls-9" d="M202.7,69.8c1.6,8.4,3.2,16.9,4.7,25.3-10.2-1.6-5-10.8-7.8-15.9-1.1-1.9,1.9-5.9-3-5.8,2-1.2,4.1-2.4,6.1-3.6Z"/>
        <path class="cls-9" d="M96.2,216.1c7.1,3.4,14.5,5.9,22.5,6.3.6,0,3,.3,1.9,2.9-.8,2.1,2.2,1.9,3.3,3-3.2,1.3-6.2-.2-9.1-1-4.7-1.3-10-1.2-13.5-5.4-.1-.8,0-2.4-1.1-1.8-5.3,2.5-2.2-3-3.9-3.9Z"/>
        <path class="cls-9" d="M128.2,228.8c4.3-.6,8.8-.9,13-2,7-1.8,14.5-1.8,21.1-5.2,0,.5,0,1,0,1.4.4,4.5-11.2,5.1-14.2,5.6-6.3.9-13.6,1.9-19.8.2Z"/>
        <path class="cls-9" d="M191.6,51.7c0-1.3-.2-2.7-.3-4,1.1-.6,1,.4,1.4.9,1.2,1.4,2.5,2.7,3.8,4,1.8,4.8,3.7,9.5,5.5,14.3-2.1,1.3-4.3,2.5-6.4,3.8,2.5-2.8-.2-7.2-2.5-9.3,2.8-.5,5.5-.1,4.4-3.9-.8-2.9-3.4-4.6-6-5.8Z"/>
        <path class="cls-10" d="M128.2,228.8c6.2,1.8,13.5.7,19.8-.2,3-.4,14.6-1.1,14.2-5.6.3.9.6,1.8.9,2.7-12.7,4.6-25.8,5.9-39.2,4.3-8.1-1-16-2.8-23.3-6.6.2-.6.4-1.1.6-1.7,3.5,4.2,8.9,4.1,13.5,5.4,2.9.8,5.9,2.3,9.1,1,.2,0,.4,0,.5,0,.4,0,.8.2,1.2.3.9,0,1.7.2,2.6.3Z"/>
        <path class="cls-12" d="M101.2,221.8c-.2.6-.4,1.1-.6,1.7-1.1,1.2-.7,6.2-3.5,5.2-1.8-.6-1.1-4.6-2-6.2-.2-.7-.4-1.5-.7-2.2.3-1.9-2.4-3.7-.1-5.7.6.5,1.2,1,1.8,1.6,1.7.9-1.4,6.4,3.9,3.9,1.1-.5.9,1,1.1,1.8Z"/>
        <path class="cls-12" d="M163.1,225.8c-.3-.9-.6-1.8-.9-2.7,0-.5,0-1,0-1.4,1.1-.3,2.6.1,3.5-.5,1.4-1,1.7-3.9,3-5.2.5.6.9,1.1,1.4,1.7-.6,1.8-1.1,3.6-1.7,5.4-.3,1.4-.4,6.2-1.4,7.1-2.3,2-3.4-3.3-3.8-4.3Z"/>
        <path class="cls-7" d="M68.3,194.1c-.4-.2-.9-.4-1.3-.6.3-.2.5-.4.8-.6.2.4.4.8.6,1.2Z"/>
        <path class="cls-9" d="M125.6,228.6c-.4,0-.8-.2-1.2-.3.4,0,.8.2,1.2.3Z"/>
        <path class="cls-4" d="M163.1,225.8c.4,1.1,1.5,6.3,3.8,4.3,1.1-.9,1.1-5.7,1.4-7.1,3.2.1,5.2-2.5,7.9-3.4-1.8,5.2,7.2,5.1,10.5,6,2.2.7,6.4,1,6,4.2-.3,2.6-3.3,2.9-5.3,3.5-14.9,4.1-30.4,5.3-45.8,5.8-15.7.5-31.5-.2-47-2.4-3.9-.6-7.8-1.3-11.6-2.5-1.8-.5-7.1-1.5-7.7-3.8-1.4-5.1,16.8-7.2,19.8-7.9.8,1.7.2,5.6,2,6.2,2.8,1,2.3-4,3.5-5.2,7.3,3.8,15.2,5.6,23.3,6.6,13.4,1.6,26.5.4,39.2-4.3Z"/>
        <path class="cls-3" d="M179.4,217.8c.2-.2.4-.4.6-.5-.2.2-.4.4-.6.5Z"/>
        <path class="cls-3" d="M176.8,219.5c.2-.2.4-.4.6-.6-.2.2-.4.4-.6.6Z"/>
        <path class="cls-10" d="M76.1,73.1c.5-.5,1.1-.9,1.6-1.4.4-.6.8-1.3,1.4-1.8,8.7-8.2,11.5-18.5,11.2-30.1,3-11.1,13.6-21.3,23.6-26.4,12.3-6.3,26.5-7.3,39.7-3.1,5.5,4.5,10,9.7,12.5,16.5,1.4,3.7,1.8,7.7,1.7,11.7,0,2,0,8.5-2,8.8,0-.3-.2-.6-.3-.8-1.3-4-4.9-4.2-8.1-5.2.5-.7-1.2-.8-.4-2.1,1-1.8,1.8-4.6,1.1-6.3-1.4-3.4-2.8-6.9-5-10.2-2.2-3.2-5.3-5.8-7.9-7.4-4.8-2.9-10.6-4.6-16.7-2.8-4.8,1.4-11.4.3-13,6.3-1.8,6.6-6.6,10.5-12.6,7.8-.1,0-.4.1-.6.2,1.4,2.6-2,3-2.2,4.7-.8,4.8-2.9,9.6-.8,14.3,1.3,2.8-2.3,8.2,4.2,8.4-2.1,3.3-4.4,6.8-.7,10.3,3.1,3,7.1,3.1,10.7,1.3,3.9-2,4.3-5.6,3-9.6,2.3,2.3,1.7,7.1-.3,9.5-2.8,3.2-7.7,1.8-11.4,1.9-7.6.1-15.2,5.6-20.6,10.6-6.3,5.9-10.6,12.6-12.9,20.9-1.8,6.7-4.7,16.4.6,22.3,0,.2,0,.4,0,.6,0,.2,0,.4,0,.6,0,.3.2.6.3.8,1,7,4.4,7.3,9.2,3.2-.4,5.1-9.3,2.5-6.5,7,3.3,5.2,8.9,10.6,14,13.9,22.2,14.3,52.2,1,62.6-21.8,2.6-5.8,3-12,3.3-18.3.3-6.7-1-11.7-4.3-17.5-1.2-2.1-1.9-4.5-3.2-6.6-1.4-2.4-3.6-3.4-5.6-5.2-.4-.4-2.2-1.9-2.1-2.5,0-.5,2.8-1.9,3.3-2.2,1.2-.7,5.6-2.8,4.2-5,0-.2,0-.3.1-.5,1.1-3.2,5.8-2.3,6.7-5.8.7,1.2,1.4,2.3,2,3.5-2.3,6.5,2.4,10.7,5.2,15.9,1.4,2.6,1.9,5.6,2.8,8.4,1.1,3,2.3,5.8,2.9,9,.9,5.3,1.3,13.7-1,18.8-1.2,2.7-3.1,4-2.6,7.2.5,2.9.8,5.6,1,8.5-2.1,0-2.1,1.1-2.5,2.8-.5,2.1-.3,2.2-2.5,2.7-4.4,1-7.2.2-8.8,5.1-.5,1.5-1.3,3.2-.5,4.6.8,1.4,3.1,1.6,3.3,3.4.3,3.2-8.6,6.6-10.9,7.9-17.9,9.7-44.2,15-60.9.2-.2-.7-.4-1.4-.6-2.1,0-2.8-1.4-4.6-4.1-5.5-.2,0-.4-.2-.6-.3-.8,0-1.5,0-2.3,0-5.2-3.1-7.5-8.2-9.4-13.7-2.5-7.3-5.1-14.6-3.7-22.5.2-.5.4-.9.6-1.4,3.1-3,.7-5.6-.4-8.9-1.2-3.7-.2-7.5,1.4-10.9,3.5-7.5,7.4-16,13.5-21.6ZM107.9,26.3c1.6-.7,3.2-1.8,4-3.4,1-2.1.4-5.1-2.4-4.7-3.6.4-8.4,9.4-1.6,8.1Z"/>
        <path class="cls-8" d="M74.1,152.2c.8,0,1.5,0,2.3,0,.2,0,.4.2.6.3,2.6.9,4.1,2.6,4.1,5.5-.3,5-4.5,6.8-8,7.1-1.9.2-3.1-4.3-3.1-7.3,0-.2,0-.4,0-.6,0-.3.2-.6.3-.9.4-2.2,2.3-2.9,3.8-4Z"/>
        <path class="cls-7" d="M53.5,128.7c2.3-1.5-.6-1.9-.6-3,0-2.6-1.1-5.3.3-7.9,1.9,1.5-.3,3.8,1.3,5.8,1.6,2,1.4,5.4,2,8.2-1.2-.9-2.8-1.4-2.9-3.2Z"/>
        <path class="cls-8" d="M61.6,114.5c-.2.5-.4.9-.6,1.4-2.7.2-4.2-2.8-2.9-5.4,2-4.1,4.2,1.6,3.5,3.9Z"/>
        <path class="cls-9" d="M53.5,128.7c.1,1.8,1.7,2.3,2.9,3.2,0,.2,0,.4,0,.6,0,.5,0,1,0,1.5,0,.8,0,1.5,0,2.3,0,0-.2,0-.3,0-1-3-2.4-5.5-5.8-6.1.4-.7.8-1.3,1.2-2,.2,0,.4.2.6.3.5,0,1,.2,1.4.3Z"/>
        <path class="cls-7" d="M56.4,133.9c0-.5,0-1,0-1.5.9.5,1.3,1,0,1.5Z"/>
        <path class="cls-9" d="M70.3,156.2c0,.3-.2.6-.3.9,0,0-.2,0-.3,0,.2-.3.4-.6.6-.9Z"/>
        <path class="cls-7" d="M52.1,128.4c-.2,0-.4-.2-.6-.3.2,0,.4.2.6.3Z"/>
        <path class="cls-5" d="M165.8,47.4c2-.3,1.9-6.9,2-8.8.2-4-.3-7.9-1.7-11.7-2.5-6.8-7-12-12.5-16.5,21.7,6.5,34.5,22.2,42.9,42.2-1.3-1.3-2.6-2.6-3.8-4-.4-.5-.4-1.5-1.4-.9-1.4-6-6.7-9.6-9.6-14.7-2.7-4.8-7.1-8.6-12.4-10.6-1.8-.7-.8,1.1-.6,1.7,3,9.7,1.7,19.5,1,29.3,0,.9.1,1.8.2,2.8-1.4-1.1-2.7-2.1-4.1-3.2-1.7-1.6,2.7-3.6-.3-5.2.1,0,.2-.2.3-.3Z"/>
        <path class="cls-5" d="M90.3,39.9c.3,11.5-2.5,21.9-11.2,30.1-.5.5-.9,1.2-1.4,1.8-.2-.3-.4-.6-.5-.9,4.3-10.3,8.7-20.6,13-30.9Z"/>
        <path class="cls-9" d="M56.1,136.8c-.2.5-.4,1-.6,1.5.2-.5.4-1,.6-1.5Z"/>
        <path class="cls-9" d="M55.6,139.1c-.3.5-.6,1-.9,1.5.3-.5.6-1,.9-1.5Z"/>
        <path class="cls-5" d="M81.6,160c16.7,14.8,43,9.5,60.9-.2,2.3-1.3,11.2-4.7,10.9-7.9-.2-1.9-2.5-2.1-3.3-3.4-.8-1.4,0-3.1.5-4.6,1.5-4.9,4.4-4.1,8.8-5.1,2.2-.5,2-.6,2.5-2.7.4-1.6.4-2.7,2.5-2.8-.2-3-.5-5.6-1-8.5-.5-3.2,1.4-4.5,2.6-7.2,2.3-5.1,1.9-13.5,1-18.8-.5-3.2-1.8-6-2.9-9-1-2.8-1.4-5.7-2.8-8.4-2.8-5.2-7.5-9.4-5.2-15.9,3.1,2.5,6.7,2.5,10.4,2.3,4,.7,4,4.8,4.9,7.2,2.2,6.2,3.2,12.8,4.5,19.3.2,1-1,2.2-1.5,3.4,0,1.9.2,3.8.3,5.8,6.3,1.2,5.8,7.4,8,11.4,1.5,2.7.5,6.9.5,10.5,0,.8-.7,2.8-1.9,1-.6-.7.2-2.5.4-3.8.3-1.9-.5-3.4-1.7-4.8-1,.9-2,1.9-3,2.8,0,.2-.2.4-.3.6-1.5.6-1.1,2-1.1,3.2,0,.4,0,.8,0,1.1l.6.9c.1.5.2,1,.3,1.4,6.9,5.9,2.1,11.9-1.1,16.6-1.4,2.2-1.9,7.1-6.6,6.7,0,.5,0,1.1.2,1.5.1.3.6.4,1,.7-.4.3-.7.8-1.1.8-3.5-.4-4.3,2.4-5.3,4.7-1.6,3.8-6.2,3.4-8.6,6.5-4.1,5.3-11.1,5.9-16.8,8.5-5,2.2-10.2,4.6-15.3,5.8-6,1.4-12.8.2-19.2-.5-9.3-1-17.7-4.6-25-10.5-1.9-1.5.8-2.4.3-3.6.2,0,.4,0,.6,0l1.2-1.4c.4-1.2.8-2.3,1.2-3.5ZM152,148.3c.7,2.1,2.4,2.6,4.1,2.6.8,0,2.4-1.2,2.3-1.5-.6-2.4-.4-5.9-3.6-6-3-.2-2,3.1-2.8,4.9Z"/>
        <path class="cls-9" d="M166.4,67.9c-3.7.2-7.3.2-10.4-2.3-.7-1.2-1.4-2.3-2-3.5,0-5.2,2.5-8.2,7.5-9.3h4.3c1.4,1.1,2.7,2.1,4.1,3.2,3.9,5.4.3,8.7-3.5,11.9ZM158.5,54.9c-.6.8-1.9,1.8-1.3,3,.5.9,2.1,1,2.8.6,2.3-1.4.3-3.4-1.6-3.5Z"/>
        <path class="cls-9" d="M81.6,160c-.4,1.2-.8,2.3-1.2,3.5-.4.5-.8,1-1.2,1.4-.2,0-.4,0-.6,0-2.6.8-4.3,2.4-4.7,5.2,0,.3-.8.8-1.2.7-.4,0-1-.7-1-1,.1-4.2-5-7.5-1.8-12.1,0,3,1.2,7.5,3.1,7.3,3.5-.3,7.7-2.1,8-7.1.2.7.4,1.4.6,2.1Z"/>
        <path class="cls-8" d="M176.5,121.2c0-.2.2-.4.3-.6,2.1.5,3.5.4,3.4,3.1-.1,2.8-1.7,3.4-3.9,4.1,0-.5-.2-1-.3-1.4-.2-.3-.4-.6-.6-.9,0-.4,0-.8,0-1.1.4-1.1.8-2.1,1.1-3.2Z"/>
        <path class="cls-8" d="M174.5,103.5c0-1.9-.2-3.8-.3-5.8,4.8-2.5,5.6,7.2.3,5.8Z"/>
        <path class="cls-5" d="M181.2,108.9c0,.2,0,.3-.1.3,0-.2,0-.3.1-.3Z"/>
        <path class="cls-11" d="M161.5,52.9c-5,1.1-7.6,4.1-7.5,9.3-.9,3.5-5.6,2.6-6.7,5.8.2-3,2-6.4-1.7-8.6-1.4-.4-2.9-.8-4.3-1.2-5.4-1-10.8-1.7-16.3-.6-.2,0-.3,0-.5,0-2.2-.1-3.1,1.4-3.3,3.1-.2,1.7.2,3.5.3,5.3,0,.3,0,.6,0,.9,0,.2.1.4.2.6,0,.3.2.7.2,1l1.1,2.1c1.2.5,2.3,1,3.5,1.5,5.7,1.2,11.4,1.6,17-.3,2.2,0,2.7-1.9,3.6-3.2,1.5,2.2-3,4.3-4.2,5-.5.3-3.2,1.6-3.3,2.2-.1.6,1.7,2.1,2.1,2.5,2,1.8,4.1,2.8,5.6,5.2,1.3,2.1,2,4.5,3.2,6.6,3.2,5.8,4.6,10.8,4.3,17.5-.3,6.3-.7,12.5-3.3,18.3-10.3,22.8-40.4,36.1-62.6,21.8-5.1-3.3-10.7-8.7-14-13.9-2.8-4.5,6-1.9,6.5-7,0-.5.2-.9.3-1.4v-.9c0-2.4.1-4.8-1.7-6.7l-1.1-1.4c-.4-.3-.8-.5-1.2-.8-.5,0-1,0-1.4,0-.7.5-1.4.9-2,1.4,0,0,0,0,0,0-.3.3-.6.6-.9.9-.1.3-.2.5-.3.8l-.5.6c-.2.8-.4,1.5-.6,2.3-5.3-5.9-2.4-15.6-.6-22.3,2.3-8.3,6.6-15,12.9-20.9,5.4-5,13-10.5,20.6-10.6,3.6,0,8.6,1.3,11.4-1.9,2-2.4,2.6-7.1.3-9.5-.1-.2-.2-.4-.3-.6-.8-1.7-2.1-2.8-4-2.9-2.7-.6-5.3-.2-7.8.9-.3.2-.6.4-.9.6h0c-6.5-.2-2.9-5.6-4.2-8.4-2.1-4.7,0-9.6.8-14.3.3-1.7,3.7-2.1,2.2-4.7.2,0,.4-.2.6-.2,6,2.7,10.8-1.2,12.6-7.8,1.6-6,8.2-4.9,13-6.3,6.1-1.8,12,0,16.7,2.8,2.7,1.6,5.7,4.2,7.9,7.4,2.2,3.3,3.6,6.7,5,10.2.7,1.7,0,4.5-1.1,6.3-.8,1.3.9,1.4.4,2.1-1.6.4-4.3-.6-4.4,1.7-.1,2.5,2.4.9,3.7,1.4,2,.7,4.1,1.3,5.9,2.3,1.2.7,2,.9,2.9-.2,0,.3.2.6.3.8-.1,0-.2.2-.3.3-4.3-.5-4.7,1.9-4,5.2ZM136.6,15c-.1-.2-.2-.3-.4-.5-.2.2-.3.3-.5.5,0,.3-.2.6-.3.9-.1,0-.3.2-.4.3.1,0,.3.2.4.3,1.2,2-.4,4.7,1.7,6.4.1.2.2.4.3.6.2.3.4.6.6.8.1.1.2.2.3.3.2.2.4.4.5.6.3.2.6.4.9.6l.9.5c.7,0,1.3-.2,2-.2.1,0,.2.2.3.3.3,0,.6.2.9.3h.6c1,1.3,2.4,1.1,3.6.5,1.2-.6,1.6-1.7,1.2-2.9-2.1-5.9-6.2-9.1-12.6-9.1h0ZM118.9,42.8c-5.2-2.8-9.1-.2-12.8,3.1-.2.2.4,1.3.7,2,4.1-1.6,8.1-3.2,12.2-4.8.6,0,1.7-.3,1.8,0,1.9,3.4,4.4,5.1,8.4,6.2,6.2,1.7,9.6-1.6,12.6-5.5,2.3-3,2.4-7.4.7-10.3-5.8-9.9-16.6-9.3-22.7.5-1.9,3.1,1.7,6.2-.9,8.8ZM140.3,107.2c-.4-15.9-12.5-29.4-30.2-29.2-15.9.2-29.7,15-29.7,32.4,0,13.8,13.6,27.4,28.9,27.5,14.8.1,31-15.9,31-30.7ZM113,143.5c-3.8-.2-6.3,5.7-2.1,6.6,5.2,1.1,6.9-7.6,2.1-6.6Z"/>
        <path class="cls-12" d="M121.9,68.4c0-.3-.2-.7-.2-1,0-.2-.1-.4-.2-.6,0-.3,0-.6,0-.9.4-2.6-.8-5.7,2.3-7.5,1.5,2.2,19.8,3.7,21.5,1.8.2-.2.2-.6.3-.9,3.7,2.3,1.9,5.6,1.7,8.6,0,.2,0,.3-.1.5-.9,1.4-1.4,3.3-3.6,3.2,3.6-4.1-6.6-6.4-9-6.3-3.1.2-11.2,2-8,6.6-1.2-.5-2.3-1-3.5-1.5-.4-.7-.8-1.4-1.1-2.1Z"/>
        <path class="cls-9" d="M104.2,53.8c2.5-1.1,5.1-1.5,7.8-.9,1.3,1,2.7,1.9,4,2.9.1.2.2.4.3.6,1.3,3.9.9,7.6-3,9.6-3.6,1.8-7.6,1.7-10.7-1.3-3.7-3.6-1.4-7,.7-10.3,0,0,0,0,0,0,.3-.2.6-.4.9-.6ZM105.9,55.2c-2.6,0-3.7,3.3-.9,3.5,2.9.2,2-2.3.9-3.5Z"/>
        <path class="cls-8" d="M78.8,116.2c.4.5.8,1,1.1,1.4,1.4,2.6-1.2,4.3-2,6.1-1.1,2.1-3.8.8-5.8-.2,0-.3-.2-.6-.3-.8,0-.2,0-.4,0-.6,0-.2,0-.4,0-.6.2-.8.4-1.5.6-2.3.2-.2.4-.4.5-.6.1-.3.2-.5.3-.8.3-.3.6-.6.9-.9,0,0,0,0,0,0,.7-.5,1.4-.9,2-1.4.5,0,1,0,1.4,0,.4.3.8.5,1.2.8Z"/>
        <path class="cls-9" d="M72.1,123.5c2,1.1,4.7,2.4,5.8.2.9-1.7,3.5-3.4,2-6.1,1.8,1.9,1.7,4.3,1.7,6.7,0,.3,0,.6,0,.9,0,.5-.2.9-.3,1.4-4.8,4.1-8.2,3.8-9.2-3.2Z"/>
        <path class="cls-9" d="M107.9,26.3c-6.8,1.3-2-7.7,1.6-8.1,2.9-.3,3.4,2.6,2.4,4.7-.8,1.7-2.4,2.7-4,3.4Z"/>
        <path class="cls-12" d="M165.5,46.5c-.9,1.2-1.7.9-2.9.2-1.8-1-3.9-1.6-5.9-2.3-1.3-.4-3.9,1.1-3.7-1.4.1-2.3,2.8-1.3,4.4-1.7,3.2,1,6.8,1.2,8.1,5.2Z"/>
        <path class="cls-9" d="M71.8,122c0,.2,0,.4,0,.6,0-.2,0-.4,0-.6Z"/>
        <path class="cls-5" d="M77,152.4c-.2,0-.4-.2-.6-.3.2,0,.4.2.6.3Z"/>
        <path class="cls-10" d="M161.5,52.9c-.7-3.3-.2-5.7,4-5.2,3,1.6-1.4,3.6.3,5.2-1.4,0-2.9,0-4.3,0Z"/>
        <path class="cls-9" d="M152,148.3c.8-1.8-.1-5.1,2.8-4.9,3.1.2,3,3.7,3.6,6,0,.3-1.5,1.5-2.3,1.5-1.7,0-3.3-.5-4.1-2.6Z"/>
        <path class="cls-7" d="M176.5,121.2c-.4,1.1-.8,2.1-1.1,3.2,0-1.2-.4-2.5,1.1-3.2Z"/>
        <path class="cls-7" d="M79.3,164.9c.4-.5.8-1,1.2-1.4-.4.5-.8,1-1.2,1.4Z"/>
        <path class="cls-7" d="M175.4,125.5c.2.3.4.6.6.9-.2-.3-.4-.6-.6-.9Z"/>
        <path class="cls-1" d="M158.5,54.9c1.9.1,3.9,2.2,1.6,3.5-.8.5-2.4.4-2.8-.6-.6-1.2.7-2.2,1.3-3Z"/>
        <path class="cls-6" d="M140.3,107.2c0,14.8-16.2,30.8-31,30.7-15.3-.1-28.8-13.7-28.9-27.5,0-17.4,13.8-32.3,29.7-32.4,17.7-.2,29.8,13.3,30.2,29.2ZM111.4,101.8c-.3.3-.6.5-.9.8-.2.2-.4.4-.6.6-.4.5-.8,1-1.1,1.4-1,2.9-3.6,7,0,8.4,3.5,1.4,8.6,1.1,10.2-4.5.9-3,.1-6,.7-9.1.5-2.6-2.5,1.3-4.1.4-1.2.6-2.3,1.1-3.5,1.7-.3.1-.6.2-.9.4Z"/>
        <path class="cls-6" d="M118.9,42.8c2.6-2.7-1.1-5.8.9-8.8,6.1-9.8,16.9-10.4,22.7-.5,1.7,2.9,1.7,7.3-.7,10.3-3.1,3.9-6.5,7.2-12.6,5.5-3.9-1.1-6.5-2.8-8.4-6.2-.1-.2-1.2,0-1.8,0,0,0,0-.2,0-.3Z"/>
        <path class="cls-9" d="M126.5,72.1c-3.2-4.6,4.9-6.4,8-6.6,2.5-.1,12.6,2.1,9,6.3-5.6,2-11.3,1.5-17,.3Z"/>
        <path class="cls-5" d="M137.2,22.8c-2.2-1.7-.5-4.4-1.7-6.4,0-.2,0-.4,0-.6,0-.3.2-.6.3-.9.3,0,.6,0,.9,0,0,0,0,0,0,0,.3,2.9,2.6,1.1,3.9,1.7,3.5,1.5,6.8,3.2,7,7.5.1,1.8-1.6,2.3-3.1,2.4-.2,0-.4,0-.6,0-.3,0-.6-.2-.9-.3-.1,0-.2-.2-.3-.3,9.2-3.8-6.2-10.3-5.5-3.2Z"/>
        <path class="cls-12" d="M118.9,42.8c0,0,0,.2,0,.3-4.1,1.6-8.1,3.2-12.2,4.8-.2-.7-.9-1.8-.7-2,3.7-3.4,7.6-5.9,12.8-3.1Z"/>
        <path class="cls-9" d="M137.2,22.8c-.7-7.1,14.8-.6,5.5,3.2-.7,0-1.3.2-2,.2-.3-.2-.6-.3-.9-.5-.3-.2-.6-.4-.9-.6-.2-.2-.4-.4-.5-.6-.1-.1-.2-.2-.3-.3-.2-.3-.4-.6-.6-.8l-.3-.6Z"/>
        <path class="cls-10" d="M144.4,26.6c1.5-.2,3.2-.6,3.1-2.4-.3-4.3-3.5-6-7-7.5-1.3-.5-3.7,1.2-3.9-1.7,6.4,0,10.5,3.2,12.6,9.1.4,1.2,0,2.4-1.2,2.9-1.2.6-2.6.9-3.6-.5Z"/>
        <path class="cls-10" d="M113,143.5c4.8-.9,3.2,7.8-2.1,6.6-4.2-.9-1.7-6.8,2.1-6.6ZM110.8,145.2c-.2,1.2-.6,3,.8,3.4.9.2,2.8-.7,3.1-1.6.6-2.1-3.5-3.5-3.9-1.8Z"/>
        <path class="cls-9" d="M141.2,58.1c-5.4-.2-10.8-.4-16.3-.6,5.5-1.1,10.9-.4,16.3.6Z"/>
        <path class="cls-9" d="M124.5,57.5c-.2.3-.5.6-.7.9-3.1,1.8-1.9,4.9-2.3,7.5-.1-1.8-.5-3.6-.3-5.3.2-1.7,1.2-3.2,3.3-3.1Z"/>
        <path class="cls-10" d="M116,55.8c-1.3-1-2.7-1.9-4-2.9,1.9.1,3.2,1.2,4,2.9Z"/>
        <path class="cls-9" d="M76.1,115.4c-.7.5-1.4.9-2,1.4.7-.5,1.4-.9,2-1.4Z"/>
        <path class="cls-9" d="M121.9,68.4c.4.7.8,1.4,1.1,2.1-.4-.7-.8-1.4-1.1-2.1Z"/>
        <path class="cls-5" d="M139.8,25.7c.3.2.6.3.9.5-.3-.2-.6-.3-.9-.5Z"/>
        <path class="cls-9" d="M78.8,116.2c-.4-.3-.8-.5-1.2-.8.4.3.8.5,1.2.8Z"/>
        <path class="cls-9" d="M74.1,116.9c-.3.3-.6.6-.9.9.3-.3.6-.6.9-.9Z"/>
        <path class="cls-10" d="M81.6,125.3c0-.3,0-.6,0-.9,0,.3,0,.6,0,.9Z"/>
        <path class="cls-10" d="M136.6,15c-.3,0-.6,0-.9,0,.2-.2.3-.3.5-.5.1.2.2.3.4.5Z"/>
        <path class="cls-10" d="M143,26.3c.3,0,.6.2.9.3-.3,0-.6-.2-.9-.3Z"/>
        <path class="cls-5" d="M137.5,23.4c.2.3.4.6.6.8-.2-.3-.4-.6-.6-.8Z"/>
        <path class="cls-10" d="M104.2,53.8c-.3.2-.6.4-.9.6.3-.2.6-.4.9-.6Z"/>
        <path class="cls-5" d="M138.3,24.6c.2.2.4.4.5.6-.2-.2-.4-.4-.5-.6Z"/>
        <path class="cls-9" d="M72.9,118.5c-.2.2-.4.4-.5.6.2-.2.4-.4.5-.6Z"/>
        <path class="cls-10" d="M135.4,15.9c0,.2,0,.4,0,.6-.1,0-.3-.2-.4-.3.1,0,.3-.2.4-.3Z"/>
        <path class="cls-9" d="M121.5,66.8c0,.2.1.4.2.6,0-.2-.1-.4-.2-.6Z"/>
        <path class="cls-1" d="M105.9,55.2c1.1,1.2,2,3.7-.9,3.5-2.9-.2-1.7-3.5.9-3.5Z"/>
        <path class="cls-11" d="M115.7,99.8c1.6,1,4.6-2.9,4.1-.4-.6,3.1.1,6.1-.7,9.1-1.7,5.7-6.7,5.9-10.2,4.5-3.7-1.4-1.1-5.5,0-8.4.5,2.4-1.8,6.9,3.3,6,7.3-1.2,7.8-5.5,3.6-10.9Z"/>
        <path class="cls-10" d="M115.7,99.8c4.1,5.4,3.7,9.7-3.6,10.9-5.1.8-2.8-3.7-3.3-6,.4-.5.8-1,1.1-1.4-.6,2.6.6,3.9,3.1,4.2,3.2.4,4.1-1.6,3.8-4.3-.4-3.4-3-1.3-4.6-1.7,1.2-.6,2.3-1.1,3.5-1.7Z"/>
        <path class="cls-9" d="M112.3,101.5c1.6.5,4.2-1.6,4.6,1.7.3,2.7-.6,4.6-3.8,4.3-2.5-.3-3.7-1.6-3.1-4.2.2-.2.4-.4.6-.6.3-.3.6-.5.9-.8.3-.1.6-.2.9-.4Z"/>
        <path class="cls-10" d="M111.4,101.8c-.3.3-.6.5-.9.8.3-.3.6-.5.9-.8Z"/>
        <path class="cls-5" d="M110.8,145.2c.4-1.8,4.6-.4,3.9,1.8-.3.9-2.2,1.8-3.1,1.6-1.4-.4-1-2.2-.8-3.4Z"/>
      </g>
    </g>
  </g>
</svg>